<svg xmlns="http://www.w3.org/2000/svg" xmlns:xlink="http://www.w3.org/1999/xlink" viewBox="0 0 113.39 113.39"><defs><style>.cls-1,.cls-9{fill:none;}.cls-2{isolation:isolate;}.cls-3{fill:url(#名称未設定グラデーション_9);}.cls-4{clip-path:url(#clip-path);}.cls-5,.cls-6{fill:#fff;}.cls-6{opacity:0.3;mix-blend-mode:overlay;}.cls-7{fill:url(#名称未設定グラデーション_7);}.cls-12,.cls-8{fill:#040000;}.cls-12,.cls-9{stroke:#040000;}.cls-9{stroke-linecap:round;stroke-linejoin:round;stroke-width:0.54px;}.cls-10{fill:#44bcc7;}.cls-11{fill:#077b7b;}.cls-12{stroke-miterlimit:10;stroke-width:0.29px;}</style><radialGradient id="名称未設定グラデーション_9" cx="52.97" cy="35.27" r="28.11" gradientUnits="userSpaceOnUse"><stop offset="0" stop-color="#46bcc7"/><stop offset="0.23" stop-color="#3996a0"/><stop offset="0.74" stop-color="#1a363f"/><stop offset="1" stop-color="#09040c"/></radialGradient><clipPath id="clip-path"><ellipse id="天球" class="cls-1" cx="52.8" cy="35.28" rx="28.31" ry="28.31"/></clipPath><linearGradient id="名称未設定グラデーション_7" x1="14.42" y1="45.15" x2="101.82" y2="45.15" gradientUnits="userSpaceOnUse"><stop offset="0" stop-color="#002c36"/><stop offset="0.28" stop-color="#031d26"/><stop offset="0.7" stop-color="#080b13"/><stop offset="1" stop-color="#09040c"/></linearGradient></defs><title>アートボード 1</title><g class="cls-2"><g id="レイヤー_3" data-name="レイヤー 3"><circle id="天球-2" data-name="天球" class="cls-3" cx="52.97" cy="35.27" r="28.11"/><g class="cls-4"><g id="Wing"><path class="cls-5" d="M56,40.49c-3.7-2.76-9.38-8.14-11.17-14.58-.93-3.32-1-11.08,4.45-15.15-7.6-1.13-11,6.72-11.17,12.4a25.34,25.34,0,0,1,.75-13.07c-7.38,6-7.48,20.08-.94,30.68-3.32-2.37-9.19-16.66-7.77-26.32-4.73,8.8,2,19.88,3.13,21.4A32.91,32.91,0,0,1,25.63,22.4c-4,8.71,6.91,24,18,29.45C35.48,50.24,26.67,40.3,24.11,32.74,23,45.07,30.51,57.27,42.86,60.18A11.36,11.36,0,0,1,40.21,60c4.45,5,28.4,9.56,37.21-9.85C69.82,49.38,60.68,44,56,40.49Zm-9.94-28.6C39,19.37,40.3,36.7,62.08,47,36.33,38.5,36.52,16.72,46.08,11.89Zm-9.19,1.82c-1.43,7.32-1.41,24.41,17.8,37C35.85,44.94,31.5,24,36.89,13.71ZM26.1,27C32.45,43.8,50.72,54.12,62.55,54.31,50.43,58.76,27,41.81,26.1,27Zm-.61,12.25a21.13,21.13,0,0,1-.52-3c2.46,9.23,16,21.59,39.19,19.6-8.14,2.27-17.75.79-25.28-2.75C32.07,50,27.56,46.46,25.49,39.29ZM27.88,47c8.73,9.06,21.48,11.27,33.54,10.51C48.07,63.4,31.76,57.91,27.88,47Zm14,13.7c6.21.33,14.8.94,20.53-2.15,3.25-1.75,4.74-2.37,6.82-4.36-5.28.17-21.59-9.08-24.9-15.71C49.39,43,62.08,51.66,74.39,52.23,65.87,64.25,47.64,63.72,41.83,60.72Z"/><path class="cls-5" d="M44.41,38.09Z"/><path class="cls-5" d="M56.49,58.38C45.13,60.75,33.68,55.54,31.1,51,34.72,54.59,44.37,58.76,56.49,58.38Z"/></g><rect id="クリア" class="cls-6" x="37.69" y="-4.23" width="9.54" height="57" transform="translate(33.57 -23.82) rotate(49.77)"/></g><g id="おおぐま座"><polygon class="cls-5" points="47.55 31.08 47.78 30.31 47.29 29.69 48.09 29.68 48.53 29.01 48.79 29.77 49.55 29.98 48.91 30.46 48.95 31.26 48.29 30.8 47.55 31.08"/><polygon class="cls-5" points="52.19 32.75 52.43 31.99 51.94 31.36 52.73 31.35 53.18 30.69 53.43 31.44 54.2 31.66 53.56 32.14 53.59 32.94 52.94 32.48 52.19 32.75"/><polygon class="cls-5" points="56.03 34.05 56.27 33.29 55.77 32.66 56.57 32.65 57.01 31.99 57.27 32.74 58.04 32.96 57.4 33.44 57.43 34.24 56.78 33.77 56.03 34.05"/><polygon class="cls-5" points="56.13 30.25 56.37 29.48 55.87 28.86 56.67 28.85 57.11 28.18 57.37 28.94 58.14 29.15 57.5 29.63 57.53 30.43 56.88 29.97 56.13 30.25"/><polygon class="cls-5" points="50.83 26.79 51.07 26.02 50.58 25.4 51.37 25.39 51.82 24.72 52.07 25.48 52.84 25.69 52.2 26.17 52.23 26.97 51.58 26.51 50.83 26.79"/><polygon class="cls-5" points="48.37 24.45 48.6 23.69 48.11 23.06 48.91 23.05 49.35 22.39 49.61 23.14 50.38 23.36 49.74 23.84 49.77 24.63 49.12 24.17 48.37 24.45"/><polygon class="cls-5" points="61.24 41.72 61.48 40.96 60.98 40.33 61.78 40.32 62.22 39.65 62.48 40.41 63.25 40.63 62.61 41.1 62.64 41.9 61.99 41.44 61.24 41.72"/><polygon class="cls-5" points="69.4 36.4 69.64 35.63 69.14 35.01 69.94 35 70.39 34.33 70.64 35.09 71.41 35.3 70.77 35.78 70.8 36.58 70.15 36.12 69.4 36.4"/><polygon class="cls-5" points="62.17 27.98 62.41 27.22 61.91 26.59 62.71 26.58 63.16 25.92 63.41 26.68 64.18 26.89 63.54 27.37 63.58 28.17 62.92 27.71 62.17 27.98"/><polygon class="cls-5" points="61.69 24.8 61.92 24.03 61.43 23.41 62.23 23.39 62.67 22.73 62.93 23.49 63.7 23.7 63.06 24.18 63.09 24.98 62.44 24.52 61.69 24.8"/><polygon class="cls-5" points="60.96 22.29 61.2 21.53 60.7 20.9 61.5 20.89 61.94 20.23 62.2 20.98 62.97 21.2 62.33 21.68 62.36 22.48 61.71 22.01 60.96 22.29"/><polygon class="cls-5" points="59.5 17.65 59.73 16.89 59.24 16.26 60.04 16.25 60.48 15.58 60.74 16.34 61.51 16.56 60.87 17.03 60.9 17.83 60.24 17.37 59.5 17.65"/><polygon class="cls-5" points="54.76 16.47 55 15.71 54.5 15.08 55.3 15.07 55.74 14.41 56 15.16 56.77 15.38 56.13 15.86 56.16 16.66 55.51 16.2 54.76 16.47"/></g><path class="cls-7" d="M101.24,26C99,21,90.83,19.31,79.81,20.69c6.71,0,11.53,1.66,13.08,5.16,3.43,7.72-10.27,21.27-30.58,30.29s-39.56,10.06-43,2.35c-1.3-2.94-.13-6.72,3-10.77C16,54,13.08,60,15,64.28c3.91,8.82,26.39,7.41,50.21-3.15S105.15,34.84,101.24,26Z"/><path class="cls-8" d="M99.18,63.15l-.14.29-.3-.09A31.69,31.69,0,0,1,91.18,59a18.58,18.58,0,0,1-2.86-2.56l-.2-.23.19-.24a6.46,6.46,0,0,1,4.24-2.48,6.69,6.69,0,0,1,4.41,1,6.37,6.37,0,0,1,2.75,3.51A7.29,7.29,0,0,1,99.18,63.15Zm-.64-.48c1.55-3.63,0-6.44-2-7.64A5.91,5.91,0,0,0,89,56.28,33.1,33.1,0,0,0,98.54,62.67Z"/><path class="cls-8" d="M91.47,57.21a1,1,0,0,1-1.1.15.93.93,0,0,1-.32-1.52,1.09,1.09,0,0,1,1.25-.26A1,1,0,0,1,91.47,57.21ZM90.65,57a.55.55,0,0,0,.54-.08.57.57,0,0,0-.14-1,.69.69,0,0,0-.61.07A.59.59,0,0,0,90.65,57Z"/><path class="cls-8" d="M98.05,61.77a1,1,0,0,1-.73.1A1,1,0,0,1,97.06,60a1.22,1.22,0,0,1,.72-.1A1,1,0,0,1,98.05,61.77ZM97,61.09a.62.62,0,0,0,1.18,0,.71.71,0,0,0-.07-.55.63.63,0,0,0-1.14.28A.54.54,0,0,0,97,61.09Z"/><path class="cls-8" d="M99,63.45c1.45,2,3.27,5.21-.27,4a25.34,25.34,0,0,1-5-2.48c-2.81-1.72-6.15-4-8.18-6.75s.27-2.66,2.43-2.09c-1.11-.5-3.64-1.8-4.12-.49s1.09,3.08,2,4.06l1.77,1.75a30.15,30.15,0,0,0,5.25,3.86l.72.41c.58.33,1.16.66,1.76,1a16.46,16.46,0,0,0,4.19,1.62C103.44,69.11,100.81,65.19,99,63.45Z"/><path class="cls-9" d="M95.41,66.72l-1-.56s0,0,0,0c-.36,1.18,0,2.5.68,2.7s1.26-.52,1.63-1.57C96.25,67.14,95.83,66.93,95.41,66.72Z"/><path class="cls-9" d="M87.1,60.42c-.28-.28-.55-.57-.82-.85a.05.05,0,0,0,0,0c-.7,1-.75,2.38-.17,2.78s1.35-.12,2-1C87.77,61.08,87.43,60.75,87.1,60.42Z"/><g id="タイトル"><path class="cls-8" d="M13.68,100.75a2,2,0,0,1-2.27-2.07v-4.2h.17v4.14a1.87,1.87,0,0,0,2.11,2,1.87,1.87,0,0,0,2.11-2V94.48H16v4.2a2,2,0,0,1-2.27,2.07Z"/><path class="cls-8" d="M21.36,96.45a2.82,2.82,0,0,0-1.26-.29c-.39,0-1.14.18-1.14,1,0,.57.36.78,1.14,1.06s1.4.6,1.4,1.31c0,1-.69,1.25-1.4,1.25a4.15,4.15,0,0,1-1.51-.3l.05-.15a3.75,3.75,0,0,0,1.45.29c.63,0,1.24-.23,1.24-1.07,0-.61-.45-.87-1.31-1.19s-1.22-.47-1.22-1.2A1.16,1.16,0,0,1,20.1,96a2.94,2.94,0,0,1,1.31.31Z"/><path class="cls-8" d="M26.1,100.58a3.67,3.67,0,0,0,1.53-.31l0,.15a4,4,0,0,1-1.58.32A2,2,0,0,1,24,98.44C24,97,24.74,96,26,96c1,0,1.79.53,1.79,2.09v.09H24.14c-.13,1.87.86,2.45,1.95,2.45Zm-.16-4.48c-1,0-1.64.7-1.79,1.88h3.44c0-1.31-.59-1.88-1.64-1.88Z"/><path class="cls-8" d="M32.57,96v.15a1.85,1.85,0,0,0-1.7,1.06v3.39H30.7v-3.2a5.26,5.26,0,0,0-.13-1.32l.14,0a2.82,2.82,0,0,1,.15.92A1.91,1.91,0,0,1,32.57,96Z"/><path class="cls-8" d="M42.32,97.75h-2v-.16h2.19v2.79a5.64,5.64,0,0,1-1.91.36c-2,0-2.67-1.3-2.67-3.1s.66-3.31,2.66-3.31a4.25,4.25,0,0,1,1.73.36l0,.15a4.55,4.55,0,0,0-1.68-.35c-2.06,0-2.51,1.71-2.51,3.15s.5,2.94,2.52,2.94a5.08,5.08,0,0,0,1.75-.31Z"/><path class="cls-8" d="M47.35,96l0,.15a1.83,1.83,0,0,0-1.69,1.06v3.39h-.17v-3.2a5.35,5.35,0,0,0-.12-1.32l.14,0a2.82,2.82,0,0,1,.15.92A1.89,1.89,0,0,1,47.35,96Z"/><path class="cls-8" d="M53.46,98.36c0,1.29-.52,2.39-2.05,2.39s-2-1.1-2-2.4.54-2.38,2-2.38,2.05,1.11,2.05,2.38Zm-2,2.24c1.31,0,1.87-.89,1.87-2.25s-.56-2.23-1.88-2.23-1.88.89-1.88,2.23.57,2.25,1.88,2.25Z"/><path class="cls-8" d="M57.74,100.78c-.88,0-1.42-.5-1.42-1.75V96.1h.17V99c0,.72.14,1.59,1.25,1.59a2.73,2.73,0,0,0,1.88-.87V96.1h.16v3.82a2.24,2.24,0,0,0,.14.79l-.15,0a2.25,2.25,0,0,1-.15-.81A2.84,2.84,0,0,1,57.74,100.78Z"/><path class="cls-8" d="M65.08,96c.88,0,1.74.52,1.74,2.18,0,1.31-.42,2.53-1.91,2.53a2.29,2.29,0,0,1-1.65-.72v2.47H63.1V96.88a2.68,2.68,0,0,0-.12-.77l.13,0a2.87,2.87,0,0,1,.15,1,2,2,0,0,1,1.81-1Zm-1.82,3.34a2.89,2.89,0,0,0,0,.43,2.08,2.08,0,0,0,1.66.78c1.14,0,1.72-.8,1.72-2.36,0-1.16-.48-2-1.59-2a1.89,1.89,0,0,0-1.79,1.14c0,.11,0,.31,0,.46Z"/><path class="cls-8" d="M73.12,94.48h.16V100a1.72,1.72,0,0,1-1.19,1.76l-.08-.12A1.63,1.63,0,0,0,73.12,100Z"/><path class="cls-8" d="M78.2,94.48h.13l2.47,6.15h-.17l-.89-2.23H76.79l-.88,2.23h-.18Zm1.47,3.77L78.26,94.7l-1.41,3.55Z"/><path class="cls-8" d="M83.25,100.63V94.48h1.21c1.56,0,2.41.4,2.41,1.67S86,98,84.74,98H83.41v2.61Zm1.45-2.77c.86,0,2-.22,2-1.7,0-1.26-.94-1.52-2.24-1.52H83.41v3.22Z"/><path class="cls-8" d="M91.33,94.48h.13l2.47,6.15h-.17l-.89-2.23h-3L89,100.63h-.18Zm1.47,3.77L91.39,94.7,90,98.25Z"/><path class="cls-8" d="M96.52,100.63h-.16V94.48h.18l4,5.86V94.48h.17v6.15h-.16l-4-5.9Z"/><polygon class="cls-10" points="17.72 87.94 17.72 87.94 14.88 88.86 15.76 87.65 15.76 87.65 17.72 87.94"/><polygon class="cls-10" points="17.72 87.94 16.3 89.32 16.3 89.32 14.88 88.86 14.88 88.86 17.72 87.94"/><polygon class="cls-11" points="16.64 91.26 16.64 91.27 14.88 90.35 14.88 88.86 14.88 88.86 14.88 88.86 16.63 91.26 16.64 91.26"/><polygon class="cls-11" points="16.3 89.32 16.64 91.26 16.63 91.26 14.88 88.86 14.88 88.86 14.88 88.86 16.3 89.32 16.3 89.32"/><polygon class="cls-11" points="15.76 87.65 15.76 87.65 14.88 88.86 14.88 88.86 14.88 88.86 14.88 88.86 14.88 85.91 14.9 85.9 15.76 87.65 15.76 87.65"/><polygon class="cls-11" points="14.88 85.88 14.9 85.9 14.88 85.91 14.88 88.86 14.88 88.86 14.01 87.65 14.01 87.65 14.01 87.65 14.88 85.88"/><polygon class="cls-5" points="14.88 88.86 14.88 88.86 14.88 88.86 14.88 88.86"/><rect class="cls-5" x="14.88" y="88.86"/><polygon class="cls-11" points="14.88 88.86 14.88 90.35 13.13 91.27 13.13 91.26 13.14 91.26 14.88 88.86"/><polygon class="cls-11" points="14.88 88.86 14.88 88.86 13.14 91.26 13.13 91.26 13.47 89.32 13.47 89.32 14.88 88.86 14.88 88.86 14.88 88.86"/><rect class="cls-5" x="14.88" y="88.86"/><polygon class="cls-10" points="14.88 88.86 14.88 88.86 13.47 89.32 13.47 89.32 12.05 87.94 12.05 87.94 14.88 88.86"/><polygon class="cls-10" points="14.88 88.86 12.05 87.94 12.05 87.94 12.05 87.94 14.01 87.65 14.01 87.65 14.88 88.86"/><polygon class="cls-10" points="27.74 87.94 27.74 87.94 24.91 88.86 25.78 87.65 25.78 87.65 27.74 87.94"/><polygon class="cls-10" points="27.74 87.94 26.32 89.32 26.32 89.32 24.9 88.86 24.91 88.86 27.74 87.94"/><polygon class="cls-10" points="26.66 91.26 26.66 91.27 24.9 90.35 24.9 88.86 26.65 91.26 26.66 91.26"/><polygon class="cls-10" points="26.66 91.26 26.65 91.26 24.9 88.86 24.9 88.86 26.32 89.32 26.32 89.32 26.66 91.26"/><polygon class="cls-11" points="25.78 87.65 25.78 87.65 24.91 88.86 24.9 88.86 24.9 88.86 24.9 85.91 24.92 85.9 25.78 87.65 25.78 87.65"/><polygon class="cls-11" points="24.9 85.88 24.92 85.9 24.9 85.91 24.9 88.86 24.9 88.86 24.9 88.86 24.02 87.65 24.02 87.65 24.03 87.65 24.9 85.88"/><polygon class="cls-5" points="24.9 88.86 24.9 88.86 24.9 88.86 24.9 88.86"/><polygon class="cls-10" points="24.9 88.86 24.9 90.35 23.15 91.27 23.15 91.26 23.16 91.26 24.9 88.86"/><polygon class="cls-5" points="24.9 88.86 24.9 88.86 24.9 88.86 24.9 88.86"/><polygon class="cls-10" points="24.9 88.86 24.9 88.86 23.16 91.26 23.15 91.26 23.49 89.32 23.49 89.32 24.9 88.86"/><polygon class="cls-11" points="24.9 88.86 24.9 88.86 23.49 89.32 23.49 89.32 22.07 87.94 22.07 87.94 24.9 88.86"/><polygon class="cls-11" points="24.9 88.86 22.07 87.94 22.07 87.94 22.07 87.94 24.02 87.65 24.02 87.65 24.9 88.86"/><polygon class="cls-11" points="37.76 87.94 37.76 87.94 34.92 88.86 35.8 87.65 35.8 87.65 37.76 87.94"/><polygon class="cls-11" points="37.76 87.94 36.34 89.32 36.34 89.32 34.92 88.86 34.92 88.86 37.76 87.94"/><polygon class="cls-11" points="36.67 91.26 36.68 91.27 34.92 90.35 34.92 88.86 36.67 91.26 36.67 91.26"/><polygon class="cls-11" points="36.67 91.26 36.67 91.26 34.92 88.86 34.92 88.86 36.34 89.32 36.34 89.32 36.67 91.26"/><polygon class="cls-10" points="35.8 87.65 35.8 87.65 34.92 88.86 34.92 88.86 34.92 88.86 34.92 85.91 34.94 85.9 35.8 87.65 35.8 87.65"/><polygon class="cls-10" points="34.92 85.88 34.94 85.9 34.92 85.91 34.92 88.86 34.92 88.86 34.92 88.86 34.05 87.65 34.05 87.65 34.05 87.65 34.92 85.88"/><polygon class="cls-5" points="34.92 88.86 34.92 88.86 34.92 88.86 34.92 88.86"/><polygon class="cls-11" points="34.92 88.86 34.92 90.35 33.17 91.27 33.17 91.26 33.18 91.26 34.92 88.86"/><polygon class="cls-5" points="34.92 88.86 34.92 88.86 34.92 88.86 34.92 88.86"/><polygon class="cls-11" points="34.92 88.86 34.92 88.86 33.18 91.26 33.17 91.26 33.51 89.32 33.51 89.32 34.92 88.86"/><polygon class="cls-10" points="34.92 88.86 34.92 88.86 33.51 89.32 33.51 89.32 32.09 87.94 32.09 87.94 34.92 88.86"/><polygon class="cls-10" points="34.92 88.86 32.09 87.94 32.09 87.94 32.09 87.94 34.05 87.65 34.05 87.65 34.92 88.86"/><polygon class="cls-11" points="44.94 88.86 44.94 88.86 43.53 89.32 43.52 89.32 42.11 87.94 44.94 88.86"/><polygon class="cls-11" points="47.78 87.94 47.78 87.94 47.77 87.94 44.95 88.86 45.82 87.65 45.82 87.65 47.78 87.94"/><polygon class="cls-11" points="47.78 87.94 46.36 89.32 46.36 89.32 44.94 88.86 44.95 88.86 47.77 87.94 47.78 87.94"/><polygon class="cls-11" points="46.69 91.26 46.7 91.27 44.94 90.35 44.94 88.86 46.69 91.26 46.69 91.26"/><polygon class="cls-11" points="46.36 89.32 46.69 91.26 46.69 91.26 44.94 88.86 44.94 88.86 46.36 89.32 46.36 89.32"/><polygon class="cls-11" points="45.82 87.65 45.82 87.65 44.95 88.86 44.94 88.86 44.94 88.86 44.94 85.91 44.96 85.9 45.82 87.65 45.82 87.65"/><polygon class="cls-11" points="44.94 85.88 44.96 85.9 44.94 85.91 44.94 88.86 44.94 88.86 44.94 88.86 44.06 87.65 44.06 87.65 44.07 87.65 44.94 85.88"/><polygon class="cls-5" points="44.94 88.86 44.94 88.86 44.94 88.86 44.94 88.86"/><polygon class="cls-11" points="44.94 88.86 44.94 90.35 43.19 91.27 43.19 91.26 43.2 91.26 44.94 88.86"/><polygon class="cls-5" points="44.94 88.86 44.94 88.86 44.94 88.86 44.94 88.86"/><polygon class="cls-11" points="44.94 88.86 44.94 88.86 43.2 91.26 43.19 91.26 43.52 89.32 43.53 89.32 44.94 88.86"/><polygon class="cls-11" points="44.94 88.86 42.11 87.94 42.11 87.94 44.06 87.65 44.06 87.65 44.94 88.86"/><polygon class="cls-10" points="57.8 87.94 57.8 87.94 54.97 88.86 55.84 87.65 55.84 87.65 57.8 87.94"/><polygon class="cls-10" points="57.8 87.94 56.38 89.32 56.38 89.32 54.97 88.86 54.97 88.86 57.8 87.94"/><polygon class="cls-11" points="56.72 91.26 56.72 91.27 54.96 90.35 54.96 88.86 54.96 88.86 54.96 88.86 56.71 91.26 56.72 91.26"/><polygon class="cls-11" points="56.38 89.32 56.72 91.26 56.71 91.26 54.96 88.86 54.96 88.86 54.97 88.86 56.38 89.32 56.38 89.32"/><polygon class="cls-11" points="55.84 87.65 55.84 87.65 54.97 88.86 54.96 88.86 54.96 88.86 54.96 88.86 54.96 85.91 54.98 85.9 55.84 87.65 55.84 87.65"/><polygon class="cls-11" points="54.96 85.88 54.98 85.9 54.96 85.91 54.96 88.86 54.96 88.86 54.09 87.65 54.09 87.65 54.09 87.65 54.96 85.88"/><polygon class="cls-5" points="54.97 88.86 54.97 88.86 54.96 88.86 54.97 88.86"/><rect class="cls-5" x="54.96" y="88.86"/><polygon class="cls-11" points="54.96 88.86 54.96 90.35 53.21 91.27 53.21 91.26 53.22 91.26 54.96 88.86"/><polygon class="cls-11" points="54.96 88.86 54.96 88.86 53.22 91.26 53.21 91.26 53.55 89.32 53.55 89.32 54.96 88.86 54.96 88.86 54.96 88.86"/><rect class="cls-5" x="54.96" y="88.86"/><polygon class="cls-11" points="54.96 88.86 54.96 88.86 53.55 89.32 53.55 89.32 52.13 87.94 52.13 87.94 54.96 88.86"/><polygon class="cls-11" points="54.96 88.86 52.13 87.94 52.13 87.94 52.13 87.94 54.09 87.65 54.09 87.65 54.96 88.86"/><polyline class="cls-10" points="67.81 87.94 64.98 88.86 65.86 87.65 65.86 87.65 67.82 87.94"/><polyline class="cls-10" points="67.81 87.94 66.4 89.32 66.4 89.32 64.98 88.86 64.98 88.86 67.81 87.94"/><polyline class="cls-10" points="66.74 91.27 64.98 90.35 64.98 88.86 66.73 91.26"/><polyline class="cls-10" points="66.73 91.26 64.98 88.86 64.98 88.86 66.4 89.32 66.4 89.32 66.73 91.26"/><polyline class="cls-11" points="65 85.9 65.86 87.65 65.86 87.65 65.86 87.65 64.98 88.86 64.98 88.86 64.98 88.86 64.98 85.91"/><polyline class="cls-11" points="64.98 85.91 64.98 88.86 64.98 88.86 64.98 88.86 64.11 87.65 64.11 87.65 64.11 87.65 64.98 85.88"/><polygon class="cls-5" points="64.98 88.86 64.98 88.86 64.98 88.86 64.98 88.86"/><polyline class="cls-10" points="63.24 91.26 64.98 88.86 64.98 90.35 63.23 91.27"/><polygon class="cls-5" points="64.98 88.86 64.98 88.86 64.98 88.86 64.98 88.86"/><polyline class="cls-10" points="63.23 91.26 63.57 89.32 63.57 89.32 64.98 88.86 64.98 88.86 63.24 91.26"/><polyline class="cls-11" points="62.15 87.94 64.98 88.86 64.98 88.86 63.57 89.32 63.57 89.32 62.15 87.94"/><polyline class="cls-11" points="62.15 87.94 64.11 87.65 64.11 87.65 64.98 88.86 62.15 87.94"/><polyline class="cls-11" points="77.83 87.94 75 88.86 75.88 87.65 75.88 87.65 77.84 87.94"/><polyline class="cls-11" points="77.83 87.94 76.42 89.32 76.42 89.32 75 88.86 75 88.86 77.83 87.94"/><polyline class="cls-10" points="76.76 91.27 75 90.35 75 88.86 75 88.86 75 88.86 76.75 91.26"/><polyline class="cls-10" points="76.75 91.26 75 88.86 75 88.86 75 88.86 76.42 89.32 76.42 89.32 76.75 91.26"/><polyline class="cls-11" points="75.02 85.9 75.88 87.65 75.88 87.65 75.88 87.65 75 88.86 75 88.86 75 88.86 75 88.86 75 85.91"/><polyline class="cls-11" points="75 85.91 75 88.86 75 88.86 74.13 87.65 74.13 87.65 74.13 87.65 75 85.88"/><polygon class="cls-5" points="75 88.86 75 88.86 75 88.86 75 88.86"/><rect class="cls-5" x="75" y="88.86"/><polyline class="cls-10" points="73.26 91.26 75 88.86 75 90.35 73.25 91.27"/><polyline class="cls-10" points="73.59 89.32 75 88.86 75 88.86 75 88.86 75 88.86 73.26 91.26"/><rect class="cls-5" x="75" y="88.86"/><polyline class="cls-11" points="72.17 87.94 75 88.86 75 88.86 73.59 89.32"/><polyline class="cls-11" points="72.17 87.94 74.13 87.65 74.13 87.65 75 88.86 72.17 87.94"/><polygon class="cls-11" points="91.22 87.94 91.21 87.94 91.21 87.94 88.38 88.86 89.26 87.65 89.26 87.65 91.22 87.94"/><polygon class="cls-11" points="91.21 87.94 89.8 89.32 89.8 89.32 88.38 88.86 88.38 88.86 91.21 87.94 91.21 87.94"/><polygon class="cls-10" points="90.13 91.26 90.13 91.27 88.38 90.35 88.38 88.86 90.12 91.26 90.13 91.26"/><polygon class="cls-10" points="89.8 89.32 90.13 91.26 90.12 91.26 88.38 88.86 88.38 88.86 89.8 89.32 89.8 89.32"/><polygon class="cls-11" points="89.26 87.65 89.26 87.65 88.38 88.86 88.38 88.86 88.38 88.86 88.38 85.91 88.39 85.9 89.26 87.65 89.26 87.65"/><polygon class="cls-11" points="88.38 85.88 88.39 85.9 88.38 85.91 88.38 88.86 88.38 88.86 88.38 88.86 87.5 87.65 87.5 87.65 87.5 87.65 88.38 85.88"/><polygon class="cls-5" points="88.38 88.86 88.38 88.86 88.38 88.86 88.38 88.86"/><polygon class="cls-11" points="88.38 88.86 88.38 90.35 86.63 91.27 86.63 91.26 86.64 91.26 88.38 88.86"/><polygon class="cls-5" points="88.38 88.86 88.38 88.86 88.38 88.86 88.38 88.86"/><polygon class="cls-11" points="88.38 88.86 88.38 88.86 86.64 91.26 86.63 91.26 86.96 89.32 86.96 89.32 88.38 88.86"/><polygon class="cls-10" points="88.38 88.86 88.38 88.86 86.96 89.32 86.96 89.32 85.55 87.94 88.38 88.86"/><polygon class="cls-10" points="88.38 88.86 85.55 87.94 85.54 87.94 87.5 87.65 87.5 87.65 88.38 88.86"/><polygon class="cls-10" points="100.35 87.94 100.35 87.94 100.35 87.94 97.52 88.86 98.39 87.65 98.39 87.65 100.35 87.94"/><polygon class="cls-10" points="100.35 87.94 98.93 89.32 98.93 89.32 97.52 88.86 97.52 88.86 100.35 87.94 100.35 87.94"/><polygon class="cls-10" points="99.27 91.26 99.27 91.27 97.52 90.35 97.52 88.86 99.26 91.26 99.27 91.26"/><polygon class="cls-10" points="98.93 89.32 99.27 91.26 99.26 91.26 97.52 88.86 97.52 88.86 98.93 89.32 98.93 89.32"/><polygon class="cls-11" points="98.39 87.65 98.39 87.65 97.52 88.86 97.52 88.86 97.52 88.86 97.52 85.91 97.53 85.9 98.39 87.65 98.39 87.65"/><polygon class="cls-11" points="97.52 85.88 97.53 85.9 97.52 85.91 97.52 88.86 97.52 88.86 97.52 88.86 96.64 87.65 96.64 87.65 96.64 87.65 97.52 85.88"/><polygon class="cls-5" points="97.52 88.86 97.52 88.86 97.52 88.86 97.52 88.86"/><polygon class="cls-11" points="97.52 88.86 97.52 90.35 95.76 91.27 95.77 91.26 95.77 91.26 97.52 88.86"/><polygon class="cls-5" points="97.52 88.86 97.52 88.86 97.52 88.86 97.52 88.86"/><polygon class="cls-11" points="97.52 88.86 97.52 88.86 95.77 91.26 95.77 91.26 96.1 89.32 96.1 89.32 97.52 88.86"/><polygon class="cls-11" points="97.52 88.86 97.52 88.86 96.1 89.32 96.1 89.32 94.69 87.94 97.52 88.86"/><polygon class="cls-11" points="97.52 88.86 94.69 87.94 94.68 87.94 96.64 87.65 96.64 87.65 97.52 88.86"/><path class="cls-12" d="M15.42,75.46a2.08,2.08,0,0,0-1.91-1.19,1.72,1.72,0,0,0-1.8,1.8c0,1.05.73,1.4,1.7,1.88a14.5,14.5,0,0,1,1.94,1,2.13,2.13,0,0,1,1,1.87,2.91,2.91,0,0,1-3,2.84,2.76,2.76,0,0,1-2.25-1,3,3,0,0,1-.62-1.06l.55-.26a3.53,3.53,0,0,0,.52.93,2.35,2.35,0,0,0,1.82.83,2.25,2.25,0,0,0,2.34-2.24,1.69,1.69,0,0,0-1-1.53c-.27-.16-.84-.45-1.64-.84-1-.47-1.44-.73-1.77-1.28A2.08,2.08,0,0,1,11,76.1a2.36,2.36,0,0,1,2.49-2.41,2.6,2.6,0,0,1,2.35,1.38Z"/><path class="cls-12" d="M28,78.69a5,5,0,1,1-5-5A5,5,0,0,1,28,78.69Zm-.67,0A4.36,4.36,0,1,0,23,83.1,4.31,4.31,0,0,0,27.34,78.69Z"/><path class="cls-12" d="M34.17,83.52,31,78.94h-.29v4.58H30.1v-9.7h1.4a3.33,3.33,0,0,1,2,.5,2.4,2.4,0,0,1,1,2.07,2.34,2.34,0,0,1-1.63,2.36,3.84,3.84,0,0,1-1.19.19l3.17,4.58Zm-3.43-5.16h.93c1.38,0,2.21-.73,2.21-2A1.82,1.82,0,0,0,33,74.69a3.48,3.48,0,0,0-1.48-.29h-.8Z"/><path class="cls-12" d="M41.92,80.33H37.79L36.5,83.52h-.7l4.08-10,4,10h-.7Zm-.23-.58-1.82-4.59L38,79.75Z"/><path class="cls-12" d="M53.18,75.8a4.26,4.26,0,0,0-3.27-1.53,4.42,4.42,0,0,0,0,8.83,4.51,4.51,0,0,0,3.25-1.47v.84A4.86,4.86,0,0,1,50,83.68a5,5,0,1,1,0-10A4.69,4.69,0,0,1,53.18,75Z"/><path class="cls-12" d="M64.81,78.69a5,5,0,1,1-5-5A4.95,4.95,0,0,1,64.81,78.69Zm-.67,0a4.36,4.36,0,1,0-4.36,4.41A4.31,4.31,0,0,0,64.14,78.69Z"/><path class="cls-12" d="M66.8,83.52l1.11-10,4.2,9,4.2-9,1.11,10h-.64l-.86-7.79s-3.79,8.14-3.81,8.14L68.3,75.73l-.86,7.79Z"/><path class="cls-12" d="M84,73.82v6.06a3.7,3.7,0,0,0,.4,2.1,2.83,2.83,0,0,0,4.51,0,3.7,3.7,0,0,0,.41-2.1V73.82h.64v6.06a4,4,0,0,1-.55,2.49,3.54,3.54,0,0,1-5.5,0,4,4,0,0,1-.55-2.49V73.82Z"/><path class="cls-12" d="M97.59,78.87h4.07a5.27,5.27,0,0,1-1,3.18A4.5,4.5,0,0,1,97,83.68a4.88,4.88,0,0,1-5-5,4.94,4.94,0,0,1,5.06-5,4.72,4.72,0,0,1,3,1A5.47,5.47,0,0,1,101.27,76l-.51.41a4.36,4.36,0,0,0-8.08,2.35A4.28,4.28,0,0,0,97,83.1a4,4,0,0,0,3.37-1.65,4.2,4.2,0,0,0,.64-2H97.59Z"/></g><path class="cls-8" d="M79.22,64h0a.67.67,0,0,0,.16-.27c0-.11.07-.21.1-.31a1,1,0,0,0,.05-.34,1.21,1.21,0,0,1,0-.19c0-.11,0-.21,0-.31s0,0,0,0v0c0-.05,0-.09,0-.13a.1.1,0,0,1,0-.09v0l0-.13c0-.09,0-.17,0-.26s-.06-.16-.09-.25a1.16,1.16,0,0,0-.18-.37.33.33,0,0,0,0-.06l-.09-.08-.2-.14-.15-.06-.07,0-.06,0-.13,0-.17,0h-.16l0,0-.06,0-.22,0H77.7s-.11,0-.16,0h-.1l-.06,0-.09,0h0a.81.81,0,0,0-.22.07l-.24.13a1.57,1.57,0,0,0-.19.18l-.15.21a1,1,0,0,0-.1.16c-.06.14-.12.28-.17.42a2.34,2.34,0,0,0-.17.53c0,.11,0,.22,0,.32a3.46,3.46,0,0,0,0,.56l0,.14a3.58,3.58,0,0,0,.11.35,1.33,1.33,0,0,0,.11.24c0,.07.11.13.16.19a.89.89,0,0,0,.43.32l.13,0,.42.14.39.08a.23.23,0,0,0,.22,0,.33.33,0,0,1,.1-.06l-.08.12c0,.06-.06.12-.12.14h0c0,.05,0,.05-.08.05h0a.24.24,0,0,1-.17,0l-.3,0L77.09,65l-.24-.08a1,1,0,0,1-.24-.11.88.88,0,0,1-.15-.12l-.09-.09s0,0,0,0l-.1-.11a.92.92,0,0,1-.19-.28C76,64,76,64,76,63.88s-.06-.2-.08-.3a1.7,1.7,0,0,1,0-.22c0-.13,0-.25,0-.38a2.45,2.45,0,0,1,0-.38c0-.11,0-.23.08-.34A1.58,1.58,0,0,1,76,62c0-.13.11-.25.16-.38a1.93,1.93,0,0,1,.19-.38l.16-.23a1.07,1.07,0,0,1,.28-.28,1.49,1.49,0,0,1,.44-.17,1.63,1.63,0,0,1,.48-.09,1.34,1.34,0,0,1,.35,0l.25.07a2.29,2.29,0,0,1,.28.09l.32.14a1.49,1.49,0,0,1,.24.14.81.81,0,0,1,.24.35,2,2,0,0,1,.11.26,2,2,0,0,1,.08.26c0,.13,0,.26,0,.39s0,.39,0,.59V63l0,0c0-.08.09-.16.13-.25a.67.67,0,0,0,.06-.15,5.36,5.36,0,0,0,.17-.57l.06-.23a3.68,3.68,0,0,1,.15-.35L80.5,61a3.92,3.92,0,0,1,.25-.32.73.73,0,0,1,.31-.19s0,0,0-.05,0-.09,0-.13a2.83,2.83,0,0,1,.14-.41,1.33,1.33,0,0,1,.23-.38,1.15,1.15,0,0,1,.48-.35,2.56,2.56,0,0,1,.46-.11l.27,0a1,1,0,0,1,.35,0h.26a.85.85,0,0,1,.37.12l.11.08s0,.06,0,.1l0,0,0,0s0,0,0,0a.39.39,0,0,1-.1-.08v0l-.07,0-.17-.06a1.15,1.15,0,0,0-.33,0,2.29,2.29,0,0,0-.37,0l-.25.05-.12,0-.12,0-.22.05a1.38,1.38,0,0,0-.37.24,1.12,1.12,0,0,0-.26.37,1.77,1.77,0,0,0-.08.33l0,.12h0a1.64,1.64,0,0,1,.44,0,.37.37,0,0,1,.27.32A1.48,1.48,0,0,1,82,61a.41.41,0,0,1-.11.24.43.43,0,0,1-.32.11h0s-.08,0-.11,0a.56.56,0,0,0-.18-.07l0,0,0,0a.09.09,0,0,1-.06-.06s0,0,0,0-.06-.2-.06-.32l-.06,0-.08.07a.77.77,0,0,0-.19.17l-.16.23a1.74,1.74,0,0,0-.11.18,1.24,1.24,0,0,0-.1.2c0,.09-.07.17-.1.27s-.05.21-.08.31l-.12.43c0,.05,0,.09,0,.13s-.07.15-.1.23a1.4,1.4,0,0,1-.1.16.33.33,0,0,1-.15.11l0,.05a2.39,2.39,0,0,1-.18.44.37.37,0,0,1-.12.13l0,0,0,0Zm2.61-3a.07.07,0,0,0,0,0,.2.2,0,0,0-.06-.14s-.06-.07-.11-.07a.25.25,0,0,0-.12,0l-.32.06a0,0,0,0,0,0,.06l.07.11a.3.3,0,0,0,.22.13h.2A.36.36,0,0,0,81.83,60.94Z"/><path class="cls-8" d="M78,64.3a.86.86,0,0,0-.45-.19.69.69,0,0,1-.51-.23,1.56,1.56,0,0,1-.27-.35,1.93,1.93,0,0,1-.11-.34c0-.13,0-.26,0-.39s0-.18,0-.27a2,2,0,0,1,.13-.59,1.77,1.77,0,0,1,.16-.34,1.09,1.09,0,0,1,.41-.44l.22-.07a1.09,1.09,0,0,1,.26-.05h.33l.19,0,.12,0a1.48,1.48,0,0,1,.25.14l.14.1.1.07a1.62,1.62,0,0,1,.17.19,1.39,1.39,0,0,1,.11.21,1,1,0,0,1,.08.35.85.85,0,0,0,0,.16,2.66,2.66,0,0,0,0,.28,1.69,1.69,0,0,1-.08.39,1.15,1.15,0,0,1-.19.42,1.51,1.51,0,0,1-.22.28.75.75,0,0,1-.42.24c-.1,0-.2,0-.3.06s0,0-.06.07h0c.07.05.12.11.21.11a.82.82,0,0,0,.49-.16,1.53,1.53,0,0,0,.42-.42,1.49,1.49,0,0,0,.24-.49,2.35,2.35,0,0,0,.13-.64,1.84,1.84,0,0,0-.08-.74,1.38,1.38,0,0,0-.2-.33,1.76,1.76,0,0,0-.5-.4.94.94,0,0,0-.41-.13l-.29,0a1,1,0,0,0-.39,0L77.3,61a.51.51,0,0,0-.16.09,1.33,1.33,0,0,0-.19.14,1.15,1.15,0,0,0-.21.23l-.1.14a1.41,1.41,0,0,0-.13.24,3.45,3.45,0,0,0-.14.34,1.54,1.54,0,0,0-.07.42s0,.08,0,.11a1.92,1.92,0,0,0,0,.24c0,.15,0,.3,0,.45a2.37,2.37,0,0,0,.13.32l.15.23a1.07,1.07,0,0,0,.14.16,1.22,1.22,0,0,0,.32.2.29.29,0,0,0,.13,0c.06,0,.11.05.18,0s0,0,.07,0,.19,0,.29,0,.08,0,.12,0Z"/><path class="cls-8" d="M80.35,63.8a.67.67,0,0,1,.08-.46.31.31,0,0,1,.13-.1c.06,0,.13,0,.19,0a.59.59,0,0,0,.14.06s0,.06.07.09a.08.08,0,0,1,0,.07s0,0,0,0-.06,0-.08.09a.59.59,0,0,1,0,.08.08.08,0,0,0,.09.05.14.14,0,0,1,.11,0,.43.43,0,0,1,.1.09.87.87,0,0,1,.2.32,1,1,0,0,1,.06.48.58.58,0,0,1-.1.27A.29.29,0,0,1,81,65l-.11,0-.22,0v0a1.55,1.55,0,0,0-.07-.43,2.14,2.14,0,0,0-.09-.34c0-.08-.06-.09-.13-.05l-.23.18a.38.38,0,0,1-.13.06l-.22.06-.35,0h-.08v0l.05,0,0,0h0a.5.5,0,0,0,.32,0h.24l.06,0,.12,0,.23-.18s0,0,0,0,0,.15,0,.22a.5.5,0,0,1,0,.12,1.5,1.5,0,0,1,0,.22.58.58,0,0,1,0,.32.29.29,0,0,1-.15.16s0,0,0,0l-.09-.1a.08.08,0,0,1,0,0,2.63,2.63,0,0,1,0-.49s0,0,0,0A.86.86,0,0,0,80,65a.43.43,0,0,0,0,0s0,0,0,0,0,0,0,0,0,0,0,0,0,.08,0,.12,0,.15.06.18l0,0-.2.09-.35.12a1.26,1.26,0,0,1-.38.06l-.32,0a.11.11,0,0,0-.1.08v0s0,.06,0,.11a.49.49,0,0,0,.21,0h0a1.33,1.33,0,0,0,.4,0,1.43,1.43,0,0,0,.34-.09l.27-.11a1.94,1.94,0,0,0,.43-.27.74.74,0,0,0,.23-.29s0,0,.07,0l.14.05.16,0a.29.29,0,0,0,.19-.06s.08,0,.12-.07a1,1,0,0,0,.28-.51,1,1,0,0,0,0-.41,1.56,1.56,0,0,0-.15-.41,1.53,1.53,0,0,0-.27-.3s0,0,0,0a.19.19,0,0,1,0-.08.24.24,0,0,0-.09-.22.66.66,0,0,0-.27-.12.36.36,0,0,0-.37.16.47.47,0,0,0-.12.28s0,.07,0,.09a.36.36,0,0,0,0,.11Z"/><path class="cls-8" d="M73.86,67.86l.07-.06a1.85,1.85,0,0,0,.14-.14.74.74,0,0,0,.17-.25c.05-.09.09-.19.13-.28l.11-.26.06-.22c0-.16.08-.33.11-.5a.09.09,0,0,0,0-.07s0,0-.06,0-.06.06-.08.1-.13.37-.2.56-.11.26-.17.39-.09.17-.13.26a.52.52,0,0,1-.2.19l-.12.07a.15.15,0,0,0-.05.06,0,0,0,0,1-.06,0,.4.4,0,0,0-.19,0,.48.48,0,0,0-.31.27,1.54,1.54,0,0,0-.11.3.39.39,0,0,0,0,.24.65.65,0,0,0,.19.21,1.35,1.35,0,0,0,.36.18l.21.08.28.09a.55.55,0,0,0,.18,0,.55.55,0,0,0,.18,0,1,1,0,0,0,.29-.15s.09,0,.13-.08a2.34,2.34,0,0,0-.46,0,.73.73,0,0,1-.41-.06c-.15-.07-.3-.14-.44-.22a.62.62,0,0,1-.27-.24s0,0,0-.06a2.25,2.25,0,0,1,.08-.24.05.05,0,0,1,.06,0,1.13,1.13,0,0,1,.18,0l.1,0,.11.05.07,0,.09,0,.27.1.29.17.22.13.15,0,.07,0a.07.07,0,0,0,.06,0s0,0,0,0a1.14,1.14,0,0,0-.31-.31c-.1-.06-.19-.14-.29-.19a1.51,1.51,0,0,0-.22-.11l-.06,0-.18-.08Z"/><path class="cls-8" d="M77.45,65.55c0,.19-.06.38-.1.57a2.88,2.88,0,0,1-.15.5,1.11,1.11,0,0,1-.07.16c-.08.13-.17.16-.29.1l-.1,0-.22-.06a.58.58,0,0,1-.14,0l-.54-.2-.12,0-.14-.08a.35.35,0,0,1-.16-.18V66.2s0,0,0,0a.78.78,0,0,1,0-.26,1.59,1.59,0,0,0,.07-.2s0,0,0-.08.06-.13.08-.2a.73.73,0,0,1,.11-.29.58.58,0,0,1,.18-.17.8.8,0,0,1,.27,0,2.66,2.66,0,0,1,.39.07c.11,0,.22.08.33.12a1.47,1.47,0,0,1,.42.24s.06,0,.11,0A1.33,1.33,0,0,1,77.45,65.55ZM76,65.6l.21,0s0,0,0,0l0-.18s0-.07,0-.09,0-.12.07-.17l-.09,0a.82.82,0,0,0-.27,0s-.08.05-.1.1-.08.24-.11.37a2.47,2.47,0,0,0-.1.29s0,.07,0,.1a.11.11,0,0,0,.05.15l.29.17.42.17.19,0a.76.76,0,0,1,0-.16s0-.05,0-.08,0-.05,0-.07l.06-.17h0c0,.12,0,.25,0,.37a.56.56,0,0,1-.07.13l.12,0,.24.06s0,0,.06,0l.06-.14c0-.13.07-.26.1-.39l.06-.31V65.7c0-.1.07-.17.11-.25H77.3v0l-.15-.07L77,65.32l-.08,0-.08,0s0,0-.08,0,0,0,0,0l-.23-.07-.07,0-.16.49a1.9,1.9,0,0,1,.75.25s.06,0,.08.06l-.18,0h0v0l-.06,0s0,0-.07,0h-.06l-.07,0-.08,0h-.12l-.11,0-.16,0H76a.7.7,0,0,0-.14,0h-.11C75.8,65.67,75.89,65.58,76,65.6Z"/><path class="cls-8" d="M78.63,66.09h0l-.2.22a4.12,4.12,0,0,1-.45.48.74.74,0,0,1-.41.17,1.71,1.71,0,0,1-.32,0l0,0,.09,0a.55.55,0,0,1-.47,0l.06,0v0h0l-.32-.07-.27-.08c-.16,0-.31-.07-.46-.12s-.36-.13-.54-.21a.46.46,0,0,1-.25-.32,1.11,1.11,0,0,1,0-.19v-.26l-.14.13a.4.4,0,0,0-.08.32.79.79,0,0,0,.05.22.47.47,0,0,0,.18.19l.19.12.09,0,.18.08.18.06.21.06.29.08.11,0,.19.06h0a.58.58,0,0,1,.19,0,.65.65,0,0,0,.33.11h.46l.09,0,.17-.05.09,0a1.11,1.11,0,0,0,.37-.32l.22-.27a2.2,2.2,0,0,0,.17-.25,1,1,0,0,0,.08-.11S78.62,66.11,78.63,66.09Z"/><path class="cls-8" d="M75.43,65.16l-.1,0-.3,0-.16,0-.26,0-.24-.1-.16-.08.09-.18a1.15,1.15,0,0,0,.07-.45,1.55,1.55,0,0,0,0-.22h0a1.21,1.21,0,0,1,0,.18s0,.11,0,.16a1.21,1.21,0,0,1-.12.41s0,0-.07,0a.28.28,0,0,1-.1-.3c0-.22.07-.43.11-.64l0-.07c0-.1.06-.12.14-.09h0l.23.06h0l.12,0,.15,0,.12,0,.14,0,.14,0,.25,0a.43.43,0,0,0,.16,0l.11-.05.06,0,0-.05a.88.88,0,0,1-.4,0l-.35-.07-.14,0-.15,0-.32-.09-.16,0a.13.13,0,0,0-.12.05.62.62,0,0,0-.17.28c0,.12-.06.24-.09.36a.43.43,0,0,0,0,.11,2.42,2.42,0,0,0-.06.46.27.27,0,0,0,.1.21l0,0L74,65l0,0s.08,0,.14.06.07,0,.1.05l.1,0h0l.18.07.13,0,.28.06a.78.78,0,0,0,.22,0s0,0,0,0S75.38,65.22,75.43,65.16Z"/><path class="cls-8" d="M74.24,63.31v0s0,0,0,0a.39.39,0,0,0,.06-.11.88.88,0,0,0,0-.23.68.68,0,0,0-.11-.32.23.23,0,0,0-.17-.12H74a.32.32,0,0,0-.27.08.45.45,0,0,0-.1.13.2.2,0,0,0,0,.08V63s0,0,0,0a.56.56,0,0,0-.21.06.7.7,0,0,0-.22.2c0,.06-.07.13-.11.18a.72.72,0,0,0-.09.2.71.71,0,0,0,0,.29.9.9,0,0,1,0,.16h0s0,0,0,.06v0c0,.13,0,.27,0,.4v0c0,.06,0,.11,0,.16a.46.46,0,0,0,.23.29.5.5,0,0,0,.23.09.7.7,0,0,0,.14,0,.45.45,0,0,0,.28-.25.85.85,0,0,0,.06-.17.67.67,0,0,0-.14.09.39.39,0,0,1-.57-.11.26.26,0,0,1,0-.12L73,64.23A1.22,1.22,0,0,1,73,64a2.33,2.33,0,0,1,0-.37.85.85,0,0,1,.13-.25.41.41,0,0,1,.21-.16h.07l.14,0h0a.22.22,0,0,0,.15-.23c0-.07,0-.13,0-.19a.1.1,0,0,1,.08-.06.24.24,0,0,1,.18.07.41.41,0,0,1,.12.2c0,.09.05.18.08.27Z"/><path class="cls-8" d="M77,63.07a2.47,2.47,0,0,1-.11-.54,1.46,1.46,0,0,1,0-.36.79.79,0,0,1,.19-.39.84.84,0,0,1,.31-.22l.11-.05a.15.15,0,0,0-.13,0,1,1,0,0,0-.33.17.51.51,0,0,0-.2.21,1.4,1.4,0,0,0-.09.17.56.56,0,0,0-.09.17.66.66,0,0,0,0,.28.57.57,0,0,1,0,.13,1.17,1.17,0,0,0,0,.27.37.37,0,0,0,.08.19s0,.06.09,0a.21.21,0,0,0,.12,0Z"/><path class="cls-8" d="M77.87,61.23h.31l.1,0h.23s.08,0,.1,0h0s.07,0,.1.06l0,0,0,0a1.64,1.64,0,0,1,.14.22,1.17,1.17,0,0,1,.1.26,1.6,1.6,0,0,1,0,.23,1.74,1.74,0,0,0,0,.22.4.4,0,0,1,0,.19l-.09,0a.3.3,0,0,0,0-.08.09.09,0,0,0,0,0s0,0,0,0a1.11,1.11,0,0,1,0-.19.31.31,0,0,1,0-.1s0-.05,0-.09a.08.08,0,0,0,0-.07.75.75,0,0,0-.07-.12.81.81,0,0,0-.06-.13s-.08-.06-.07-.13,0,0,0,0-.12-.08-.18-.12l-.06,0s-.07,0-.1,0-.07,0-.08,0,0,0-.06,0l0,0H78.1s-.06,0-.1,0l0,0h0l-.11,0h-.08v-.08l0,0,0-.05h.07s0-.06,0-.09Zm0,.09.06,0S77.91,61.25,77.91,61.32Z"/><path class="cls-8" d="M77.7,67.37a2.08,2.08,0,0,1-.3.45,1.29,1.29,0,0,1-.17.16,1.53,1.53,0,0,0-.18.18.29.29,0,0,0-.07.23l.12,0a.59.59,0,0,0,.18-.14l.11-.15a2.56,2.56,0,0,0,.22-.35,2.14,2.14,0,0,0,.09-.27Z"/><path class="cls-8" d="M77.71,65.3l0,0h0c.1,0,.11,0,.07.2s-.1.4-.15.6l-.06.25a.66.66,0,0,1,0,.15.64.64,0,0,1-.1.13.08.08,0,0,0,0,.06s0,.06.07,0a.36.36,0,0,0,.13-.19,1.4,1.4,0,0,0,.09-.29,2,2,0,0,0,.05-.26l.12-.49s0-.08,0-.12,0-.12-.07-.13l-.08,0S77.71,65.27,77.71,65.3Z"/><path class="cls-8" d="M76.84,67.43l-.12,0-.51.16-.26.07-.11,0h0l0,.05.09,0a.67.67,0,0,0,.47-.1l.07,0,0,0,.13-.08.14-.08.06-.06Z"/><path class="cls-8" d="M75.22,67.16a.19.19,0,0,0-.16.12,0,0,0,0,0,0,.06l.12.11.06,0h0l.1,0h0a.31.31,0,0,0,.15.1l0,0h0v0l0,0a.05.05,0,0,0,0,0s0,0,0,0l-.18-.19c-.07-.06-.13-.13-.19-.19A.21.21,0,0,1,75.22,67.16Z"/><path class="cls-8" d="M75.66,64.9s-.09.06-.11.1-.11.35-.17.52a2.58,2.58,0,0,1-.18.46s0,.07,0,.1,0,0,0,0h0l0,.07.13-.11,0,0s0,0,0-.07a2.23,2.23,0,0,0,.18-.45c0-.15.08-.3.13-.46A1.15,1.15,0,0,1,75.66,64.9Z"/><path class="cls-8" d="M75.48,68.06l-.09.06-.06.07a1.47,1.47,0,0,0-.1.13,2.26,2.26,0,0,0-.16.26s0,.06,0,.07,0,0,.09,0,0,0,0,0a.22.22,0,0,1,.06-.14,1.42,1.42,0,0,0,.08-.18,1.63,1.63,0,0,0,.11-.23s0,0,0,0Z"/><path class="cls-8" d="M78.17,65.18c.07.08.16.07.23.09l0,0h.23s0,0,0,0,0,0,0,0h.06a.28.28,0,0,0,.15,0h.27a.07.07,0,0,0,.08-.05h-.08l0,0h0l0,0h-.07s0,0,0,0-.1,0-.15,0l-.62-.06H78.2Z"/><path class="cls-8" d="M77.16,63.58l0,.08a.13.13,0,0,0,.21,0,.13.13,0,0,0,0-.18.29.29,0,0,0-.1,0s-.13,0-.16.09,0,0,0,.07h.1Z"/><path class="cls-8" d="M74.5,64.37l0,0v0h0l.2,0a.66.66,0,0,0,.14,0h0l.06.06v-.09l-.4-.09a.08.08,0,0,0-.1.06A.17.17,0,0,0,74.5,64.37Z"/><path class="cls-8" d="M77.54,63.89l.1,0v.06l.07,0s0,0,0,0,0-.06,0-.07h-.07l0,0C77.51,63.84,77.51,63.84,77.54,63.89Z"/><path class="cls-8" d="M75,64.14s0,0-.07,0,0,0,0,0-.22,0-.25,0h.17s0,0,.07,0h0s0,0,0,0Z"/><path class="cls-8" d="M78.79,65l0,0v0h0c0-.05,0,0-.08,0h-.11s0,0,0,0h0c0,.06.06,0,.08,0S78.75,65,78.79,65Z"/><path class="cls-8" d="M78.05,63.87,78,64h0a.61.61,0,0,0,.07-.1Z"/><path class="cls-8" d="M75,64.14l0,0H75C75,64.13,75,64.12,75,64.14Z"/><path class="cls-8" d="M75,64.33l.1,0c0-.09-.07,0-.09-.07Z"/><path class="cls-8" d="M75,64.18Z"/><path class="cls-8" d="M78,61.27s-.06,0-.06,0Z"/></g><g id="カットパス"><rect class="cls-1" x="3.37" y="3.28" width="106.3" height="105.11" rx="12.19"/></g></g></svg>