<svg xmlns="http://www.w3.org/2000/svg" xmlns:xlink="http://www.w3.org/1999/xlink" viewBox="0 0 1280 1024"><defs><style>.cls-1,.cls-3,.cls-5,.cls-6{fill:none;}.cls-2{fill:#fff;}.cls-3,.cls-5,.cls-6{stroke:#fff;stroke-linecap:round;stroke-linejoin:round;}.cls-3{stroke-width:12.75px;}.cls-4{clip-path:url(#clip-path);}.cls-5{stroke-width:10.93px;}.cls-6{stroke-width:6px;}</style><clipPath id="clip-path"><path id="天球" class="cls-1" d="M480.8,559.41a272.27,272.27,0,0,1-139.95-238C340.85,170.94,462.8,49,613.25,49s272.4,121.93,272.4,272.35-122,272.35-272.4,272.35a271.24,271.24,0,0,1-132.45-34.3"/></clipPath></defs><title>base-one</title><g id="レイヤー_8" data-name="レイヤー 8"><rect x="-5.49" y="-4.49" width="1297.99" height="1036.99"/><path class="cls-2" d="M1292-4V1032H-5V-4H1292m1-1H-6V1033H1293V-5Z"/></g><g id="天球-2" data-name="天球"><path class="cls-3" d="M872.9,386.94c6.34-22.65,8.8-44.61,8.8-69.34,0-149.36-121.08-270.43-270.43-270.43S340.85,168.24,340.85,317.6a270.33,270.33,0,0,0,138.42,236"/><path class="cls-3" d="M608.74,585.51c84.67,0,161-33.61,211.33-93.82"/><g class="cls-4"><path class="cls-1" d="M702.56,434.31C493.06,335,480.31,168.33,548.62,96.37,456.63,142.83,454.8,352.33,702.56,434.31Z"/><path class="cls-1" d="M631.51,469.83c-184.9-121.14-185.1-285.6-171.29-356C408.35,213,450.25,414.27,631.51,469.83Z"/><path class="cls-1" d="M356.43,242.11c7,121.07,172,257.35,292.8,268.55q11.73-4.52,23.56-9.41C560.58,483,411.6,387.87,356.43,242.11Z"/><path class="cls-1" d="M345.5,331.38c.21,6,3.59,23.48,5.05,28.56,19.93,69,63.34,102.79,128.85,133.58A396.16,396.16,0,0,0,600.66,527.9q12.29-4,24.74-8.42C461.55,502.86,365.5,406.41,345.5,331.38Z"/><path class="cls-1" d="M373.51,434.31C394,491.67,450.21,533.44,518,550.25q11.58-2.46,23.46-5.4C475,533.35,421,501.49,404.53,472.31c25.93,26,84.13,54.86,160.36,66.38q10.32-2.88,20.8-6.08C506.56,522.72,431,493.94,373.51,434.31Z"/><path class="cls-1" d="M531.32,352.33C554.23,398.15,641.68,457,707.94,485.93q16.8-7.69,32.93-15.8C651,443.4,569.37,386.15,531.32,352.33Z"/><path class="cls-2" d="M613.3,583.69c-12.73,4.12-24.93,9.24-37.35,12.76,84.59,17.45,205,.52,267.39-118.2q-15.18,8.89-31.08,17.57C759.91,559.72,681.81,582.37,613.3,583.69Z"/><path class="cls-2" d="M531.32,352.33c38,33.82,119.7,91.07,209.55,117.8q21.69-10.89,42-22.4c-54.09-19.92-107-52.73-138.61-76.27-35.62-26.55-90.24-78.3-107.49-140.28-8.88-31.92-9.11-106.57,42.81-145.74-73.13-10.83-105.66,64.67-107.48,119.33-6.38-28.24-9.11-81.07,7.29-125.7-71,57.38-72,193.1-9.11,295.12C438.41,351.42,381.93,213.88,395.6,121c-45.55,84.71,19.13,191.28,30.06,205.86-51.92-54.66-70.83-117.29-73.79-129.35-38.25,83.8,66.5,230.45,173.07,283.28C446.61,465.28,361.89,369.64,337.27,297c-9.73,109.48,51,217.88,153.72,255.93l.25-.16-.25.16q2.4.9,4.85,1.74,10.91-2,22.16-4.37c-67.79-16.81-124-58.58-144.49-115.94,57.48,59.63,133.05,88.41,212.18,98.3q7.44-2.26,15-4.71A396.16,396.16,0,0,1,479.4,493.52c-65.51-30.79-108.92-64.61-128.85-133.58-1.46-5.08-4.84-22.58-5.05-28.56,20,75,116.05,171.48,279.9,188.1q11.85-4.2,23.83-8.82c-120.8-11.2-285.82-147.48-292.8-268.55C411.6,387.87,560.58,483,672.79,501.25q11.85-4.9,23.78-10.19c3.81-1.69,7.6-3.41,11.37-5.13C641.68,457,554.23,398.15,531.32,352.33Zm1.21-3.91h0Zm16.09-252c-68.31,72-55.56,238.65,153.94,337.94C454.8,352.33,456.63,142.83,548.62,96.37Zm-88.4,17.47c-13.81,70.39-13.61,234.85,171.29,356C450.25,414.27,408.35,213,460.22,113.84Z"/><path class="cls-2" d="M404.53,472.31c16.43,29.18,70.49,61,136.93,72.54Q553,542,564.89,538.69C488.66,527.17,430.46,498.29,404.53,472.31Z"/></g><g id="おおぐま座"><polygon class="cls-2" points="562.73 280.02 565 272.68 560.25 266.65 567.93 266.54 572.19 260.15 574.67 267.43 582.06 269.51 575.91 274.11 576.22 281.79 569.94 277.36 562.73 280.02"/><polygon class="cls-2" points="607.45 296.15 609.72 288.82 604.96 282.78 612.64 282.68 616.91 276.29 619.39 283.56 626.78 285.65 620.63 290.25 620.93 297.92 614.65 293.5 607.45 296.15"/><polygon class="cls-2" points="644.37 308.65 646.64 301.31 641.88 295.28 649.56 295.17 653.83 288.78 656.3 296.06 663.7 298.14 657.55 302.74 657.85 310.42 651.57 305.99 644.37 308.65"/><polygon class="cls-2" points="645.31 272.04 647.59 264.7 642.83 258.67 650.51 258.56 654.78 252.17 657.25 259.44 664.65 261.53 658.5 266.13 658.8 273.81 652.52 269.38 645.31 272.04"/><polygon class="cls-2" points="594.36 238.74 596.63 231.4 591.88 225.37 599.56 225.26 603.83 218.87 606.3 226.15 613.7 228.23 607.54 232.83 607.85 240.51 601.57 236.08 594.36 238.74"/><polygon class="cls-2" points="570.66 216.27 572.93 208.93 568.17 202.9 575.85 202.79 580.12 196.4 582.6 203.67 589.99 205.76 583.84 210.36 584.14 218.03 577.86 213.61 570.66 216.27"/><polygon class="cls-2" points="694.47 382.41 696.74 375.07 691.99 369.04 699.67 368.93 703.93 362.54 706.41 369.81 713.8 371.9 707.65 376.5 707.95 384.17 701.68 379.75 694.47 382.41"/><polygon class="cls-2" points="773.01 331.21 775.28 323.87 770.53 317.84 778.21 317.73 782.48 311.34 784.95 318.62 792.35 320.7 786.19 325.3 786.5 332.98 780.22 328.55 773.01 331.21"/><polygon class="cls-2" points="703.46 250.27 705.73 242.93 700.98 236.9 708.66 236.79 712.92 230.4 715.4 237.68 722.79 239.76 716.64 244.36 716.95 252.04 710.67 247.61 703.46 250.27"/><polygon class="cls-2" points="698.79 219.59 701.06 212.25 696.31 206.22 703.99 206.11 708.25 199.72 710.73 206.99 718.12 209.08 711.97 213.68 712.27 221.35 706 216.93 698.79 219.59"/><polygon class="cls-2" points="691.79 195.5 694.06 188.16 689.3 182.13 696.99 182.02 701.25 175.63 703.73 182.91 711.12 184.99 704.97 189.59 705.27 197.27 699 192.84 691.79 195.5"/><polygon class="cls-2" points="677.7 150.83 679.97 143.49 675.22 137.46 682.9 137.35 687.16 130.97 689.64 138.24 697.03 140.32 690.88 144.92 691.19 152.6 684.91 148.17 677.7 150.83"/><polygon class="cls-2" points="632.15 139.53 634.42 132.19 629.67 126.16 637.35 126.05 641.62 119.67 644.09 126.94 651.48 129.02 645.33 133.62 645.64 141.3 639.36 136.87 632.15 139.53"/></g></g><g id="輪"><path class="cls-5" d="M1071.11,200.43C1049.75,152.3,971,135.84,865,149.14c64.5-.38,110.89,15.93,125.85,49.65C1023.73,273,892,403.44,696.57,490.15c-75.52,33.5-149.49,55.57-213.73,65.76-102,16.18-179.55,2.4-199.75-43.14-12.52-28.23-1.21-64.6,28.36-103.6-60.47,60-88.51,117.66-70,159.35,29.69,66.91,170.38,72.62,340.86,22.23a1170.37,1170.37,0,0,0,142.16-52.6C953.56,436.5,1108.76,285.3,1071.11,200.43Z"/><path class="cls-2" d="M369.85,968V870.07h51.64V880.7h-40v28.1h40v10.83h-40v37.53h40V968Z"/><path class="cls-2" d="M443.15,968l23.55-31.64-22.88-29.57h13l15.86,21.88,16-21.88h13.05l-23.08,29.57L502.49,968H489.44l-16.72-23.68L456.2,968Z"/><path class="cls-2" d="M526.89,997.83v-91h10V918.3a25.79,25.79,0,0,1,9.36-10.17,24.5,24.5,0,0,1,13-3.55q13.24,0,21.27,9t8,23.94q0,15.2-7.86,24.12t-21,8.93a24.69,24.69,0,0,1-13.18-3.45,25.38,25.38,0,0,1-9.16-10.26v40.93ZM537,937.56q0,10.31,5.69,16.53t15.05,6.22q9.16,0,14.41-5.69t5.26-15.79q0-11.3-5.26-17.72t-14.61-6.42q-9.57,0-15,6.08T537,937.56Z"/><path class="cls-2" d="M619.46,968V864.31h10.7V968Z"/><path class="cls-2" d="M660.85,937.56a33,33,0,0,1,2.48-12.74,32.15,32.15,0,0,1,7.22-10.67A32.73,32.73,0,0,1,681.32,907a33.86,33.86,0,0,1,12.85-2.45,32.82,32.82,0,0,1,12.67,2.48,34.35,34.35,0,0,1,10.87,7.22,31.4,31.4,0,0,1,7.23,10.61,32.81,32.81,0,0,1,2.47,12.67,32.33,32.33,0,0,1-2.47,12.61,31.52,31.52,0,0,1-7.23,10.54,34.6,34.6,0,0,1-10.93,7.36,32.35,32.35,0,0,1-12.61,2.54,33.13,33.13,0,0,1-12.81-2.51,33.58,33.58,0,0,1-10.81-7.19,34,34,0,0,1-7.22-10.7A32.32,32.32,0,0,1,660.85,937.56Zm11.11,0A22.77,22.77,0,0,0,678.45,954a21,21,0,0,0,15.72,6.72A20.74,20.74,0,0,0,709.75,954a24.22,24.22,0,0,0,0-32.85,20.74,20.74,0,0,0-15.58-6.72,21,21,0,0,0-15.76,6.72A22.83,22.83,0,0,0,672,937.56Z"/><path class="cls-2" d="M757.57,968V906.79h9.3V919.5q4.21-7.95,9-11.37a19.36,19.36,0,0,1,11.57-3.41,21.31,21.31,0,0,1,3.62.3,22.57,22.57,0,0,1,3.48.9L791,915.35a26.29,26.29,0,0,0-3.41-.9,16.8,16.8,0,0,0-3.08-.3q-8.29,0-12.44,6t-4.15,18V968Z"/><path class="cls-2" d="M873.89,939h-48.5v.93q0,9.84,5.62,15.89t14.65,6.06a19.51,19.51,0,0,0,11.1-3.32,28.85,28.85,0,0,0,8.76-10l8,5.35a30.69,30.69,0,0,1-28.37,16.73q-14,0-22.61-9.23t-8.63-24.22q0-14.38,8.56-23.54t22-9.17q13.57,0,21.51,8.7t7.93,23.74Zm-11.24-8.5q-.54-8.09-5.39-12.47T844,913.62a17.87,17.87,0,0,0-18.59,16.85Z"/><path class="cls-2" d="M903.51,968V906.79h9.29V919.5q4.23-7.95,9-11.37a19.32,19.32,0,0,1,11.57-3.41,21.19,21.19,0,0,1,3.61.3,22.28,22.28,0,0,1,3.48.9L937,915.35a25.87,25.87,0,0,0-3.41-.9,16.71,16.71,0,0,0-3.08-.3q-8.3,0-12.44,6t-4.14,18V968Z"/><path class="cls-2" d="M237.44,704.62q9.57,4.08,14.42,10.83a26.74,26.74,0,0,1,4.85,16q0,13.51-8.6,21.77t-22.78,8.26q-11.57,0-19.39-5.92t-10.57-16.82l10.57-5.22q2.13,8.91,7.05,13.48a17.37,17.37,0,0,0,12.34,4.58q8.78,0,14.19-5.05a17.12,17.12,0,0,0,5.41-13.14A18.09,18.09,0,0,0,241.16,722q-3.78-4.85-11.41-8.19l-11.91-5.08q-9.76-4.08-14.55-10.51a25,25,0,0,1-4.78-15.38,22,22,0,0,1,7.76-17.26q7.75-6.82,19.8-6.83a29.93,29.93,0,0,1,15.29,3.75,25.39,25.39,0,0,1,10.06,11l-9.63,6.15a25.12,25.12,0,0,0-7.36-8.46,16,16,0,0,0-9.23-2.78,14.87,14.87,0,0,0-10.74,4,14.45,14.45,0,0,0-1,19.26q3.21,3.82,10,6.76Z"/><path class="cls-2" d="M372.44,710.23A50.86,50.86,0,0,1,368.55,730a49.46,49.46,0,0,1-11.31,16.52,53.16,53.16,0,0,1-74.16,0,49.77,49.77,0,0,1-15.33-36.33,50.72,50.72,0,0,1,3.91-19.83,50,50,0,0,1,11.42-16.62,51.8,51.8,0,0,1,17-11,53.82,53.82,0,0,1,40.13,0,51.93,51.93,0,0,1,17,11,49.18,49.18,0,0,1,11.31,16.55A51.27,51.27,0,0,1,372.44,710.23Zm-52.35,40.41a39,39,0,0,0,15.3-3,40.56,40.56,0,0,0,13.09-8.86,39.62,39.62,0,0,0,11.78-28.5,40.67,40.67,0,0,0-3.05-15.65,39.88,39.88,0,0,0-37.12-24.88,40.07,40.07,0,0,0-15.46,3,38.19,38.19,0,0,0-12.93,8.76,40.26,40.26,0,0,0-11.78,28.76,39.89,39.89,0,0,0,3,15.39,41.58,41.58,0,0,0,21.89,22A39.39,39.39,0,0,0,320.09,750.64Z"/><path class="cls-2" d="M391.43,759V661.07h23q9.82,0,14.41,1.1a21.26,21.26,0,0,1,8.06,3.78,22.37,22.37,0,0,1,6.76,9.13,32.45,32.45,0,0,1,2.41,12.68q0,12-6.73,18.29t-19.7,6.26h-2.07L455,759H440.2l-35.72-46.69h-1.67V759Zm11.38-88.1v32.78h8.89q13.65,0,18.27-3.51t4.61-12.28q0-9.43-4.75-13.21T411.7,670.9Z"/><path class="cls-2" d="M495.72,657.19,540.27,759H527.63l-12.71-30H476.66L464,759H451.31Zm0,25.75L480.14,719h31.17Z"/><path class="cls-2" d="M629.85,684.48a47.45,47.45,0,0,0-15-11.27,41.76,41.76,0,0,0-17.59-3.65,39.51,39.51,0,0,0-28,11.91,39,39,0,0,0-8.43,13,43.19,43.19,0,0,0-2.81,15.89,45,45,0,0,0,1.67,12.57,36.09,36.09,0,0,0,5,10.57,40.66,40.66,0,0,0,14.48,12.88,40.65,40.65,0,0,0,36,.64,45.67,45.67,0,0,0,14.65-11.58v15.46a55.87,55.87,0,0,1-33.05,10.7,50.23,50.23,0,0,1-15.12-2.31,51.49,51.49,0,0,1-13.78-6.72,49.8,49.8,0,0,1-22-42.08,54,54,0,0,1,3.78-20.57,49.61,49.61,0,0,1,11.54-16.82A50.46,50.46,0,0,1,577.8,662.3a54,54,0,0,1,19.87-3.58,53.1,53.1,0,0,1,16.46,2.58,59.86,59.86,0,0,1,15.72,8Z"/><path class="cls-2" d="M749.92,710.23A50.86,50.86,0,0,1,746,730a49.61,49.61,0,0,1-11.31,16.52,53.19,53.19,0,0,1-74.17,0,49.87,49.87,0,0,1-15.33-36.33,50.73,50.73,0,0,1,3.92-19.83,50,50,0,0,1,11.41-16.62,52,52,0,0,1,17-11,53.82,53.82,0,0,1,40.13,0,51.86,51.86,0,0,1,17,11A49.32,49.32,0,0,1,746,690.33,51.27,51.27,0,0,1,749.92,710.23Zm-52.34,40.41a39.06,39.06,0,0,0,15.3-3A40.41,40.41,0,0,0,726,738.73a39.56,39.56,0,0,0,8.77-13,40,40,0,0,0,3-15.46,40.86,40.86,0,0,0-3-15.65,39.9,39.9,0,0,0-37.12-24.88,40.12,40.12,0,0,0-15.47,3,38.25,38.25,0,0,0-12.92,8.76,40.78,40.78,0,0,0,13.09,66.16A39.39,39.39,0,0,0,697.58,750.64Z"/><path class="cls-2" d="M814.54,762.81l-30.43-70.37L771.8,759H760.42l19.87-101.81,34.25,81,34.25-81L868.66,759H857.29l-12.44-66.56Z"/><path class="cls-2" d="M923.71,661.07h11.78V722q0,14.85,6.32,21.8t19.83,7q13.51,0,19.84-7T987.8,722V661.07h11.84V722q0,19.86-9.47,29.73t-28.53,9.87q-19,0-28.46-9.87T923.71,722Z"/><path class="cls-2" d="M1076.63,708.43H1117v3.28q0,23.14-13.11,36.52t-35.79,13.38a57.21,57.21,0,0,1-13.14-1.47,47.64,47.64,0,0,1-11.54-4.28,46.67,46.67,0,0,1-18.6-18.3A53.21,53.21,0,0,1,1018.3,711a59.52,59.52,0,0,1,3.92-22.11,48.18,48.18,0,0,1,11.8-17.36,44.25,44.25,0,0,1,15.39-9.5,56,56,0,0,1,19.4-3.21q14.12,0,24.48,5.12a43.52,43.52,0,0,1,17.19,15.42l-9.76,7.82a35.91,35.91,0,0,0-13.18-13.34,36.64,36.64,0,0,0-18.33-4.45q-17.06,0-27.69,11.5T1030.88,711q0,17.52,10.8,28.76T1069.21,751q14.71,0,24.52-8.93t10.87-23.25h-28Z"/></g><g id="UFO"><g id="_グループ_" data-name="&lt;グループ&gt;"><path class="cls-2" d="M1040.42,469.77l2.55,2.49-2.12,2.86c-11.64,15.85-44.18,43.38-74.12,63.21C952.91,547.49,939.64,555,929.25,559l-3.14,1.2-1.79-2.84c-10.58-16.8-14.17-35.39-10.4-53.74a74.63,74.63,0,0,1,26.32-42.81,70.62,70.62,0,0,1,47-15.94C1006.15,445.59,1024.53,454.21,1040.42,469.77Zm-7.39,4.87c-32.52-29.66-67.81-23.5-87.65-7.48-21.13,17.06-33.66,51.47-14.87,84.39C963.32,537.65,1015.73,495.59,1033,474.64Z"/></g><path class="cls-2" d="M949.41,528.79a11.15,11.15,0,0,1-2.47,12.15c-5.56,5.44-13.77,4.59-17.13-2.27-2.21-4.49-1.93-10.81,1.85-14.09A11.21,11.21,0,0,1,949.41,528.79Zm-5,7.94a6.2,6.2,0,0,0,1.2-5.92,6.36,6.36,0,0,0-11-2.22,7.93,7.93,0,0,0-1.54,6.69C934.69,540.11,941.1,540.57,944.42,536.73Z"/><path class="cls-2" d="M1021.74,476.46a10.87,10.87,0,0,1-1.68,8.07c-5.88,8.57-19.73,6.16-20.61-4.19a13,13,0,0,1,1.6-7.86C1006.49,463.63,1019.68,466.28,1021.74,476.46Zm-11.2,9c7-.53,9.71-8.42,4.55-12.27a7.74,7.74,0,0,0-6-1.29,7,7,0,0,0-1.3,13A5.26,5.26,0,0,0,1010.54,485.41Z"/><path class="cls-2" d="M1043,472.32c26.29-7.9,66.83-15.14,41.38,17.67-12.11,15.61-28.49,30.16-44.48,43.15-28.43,23.1-65.06,49.73-101.15,61-34.44,10.75-26.94-12.59-13-33.23-9.31,9.8-32.35,31.58-20.41,41.55,11.15,9.3,36.45-.09,50-5.91,2-.87,23.24-11.11,25-12a335.11,335.11,0,0,0,60-41c2.31-2,4.65-4,7-6.05,5.53-4.82,11.14-9.78,16.6-14.91,12.66-11.88,24.49-24.6,32.51-38.08C1118.8,447,1067.83,460.1,1043,472.32Z"/><path class="cls-6" d="M1064,522.52q-4.82,4.51-9.73,8.86l.4.31c11.07,8.08,26.34,9.1,31,2.77,4.29-5.88-.87-15.12-10.52-22.89C1071.51,515.3,1067.78,519,1064,522.52Z"/><path class="cls-6" d="M967.06,586.6c-4,1.9-8,3.72-12,5.5.1.13.19.27.29.41,8.1,11.06,22.34,16.66,28.65,12,5.88-4.3,3.77-14.67-3.07-25C976.43,582,971.77,584.35,967.06,586.6Z"/></g><g id="タイトル"><polygon class="cls-2" points="292.49 813.1 292.44 813.14 265.69 821.81 273.98 810.42 273.98 810.41 292.49 813.1"/><polygon class="cls-2" points="292.44 813.14 279.08 826.18 279.06 826.15 265.69 821.82 265.69 821.81 292.44 813.14"/><polygon class="cls-2" points="282.23 844.49 282.25 844.63 265.67 835.91 265.67 821.83 265.67 821.83 265.68 821.83 282.16 844.5 282.23 844.49"/><polygon class="cls-2" points="279.08 826.18 282.23 844.49 282.16 844.5 265.68 821.83 265.68 821.82 265.69 821.82 279.06 826.15 279.08 826.18"/><polygon class="cls-2" points="273.98 810.41 273.98 810.42 265.69 821.81 265.68 821.82 265.67 821.82 265.67 821.81 265.67 793.94 265.8 793.88 273.96 810.41 273.98 810.41"/><polygon class="cls-2" points="265.67 793.62 265.8 793.88 265.67 793.94 265.67 821.81 265.66 821.81 257.37 810.42 257.37 810.41 257.39 810.41 265.67 793.62"/><polygon class="cls-2" points="265.69 821.81 265.69 821.82 265.68 821.82 265.69 821.81"/><rect class="cls-2" x="265.67" y="821.82" width="0.01" height="0.01"/><polygon class="cls-2" points="265.67 821.83 265.67 835.91 249.1 844.63 249.12 844.49 249.19 844.5 265.67 821.83"/><polygon class="cls-2" points="265.67 821.83 265.67 821.83 249.19 844.5 249.12 844.49 252.27 826.18 252.29 826.15 265.66 821.82 265.67 821.82 265.67 821.83"/><rect class="cls-2" x="265.66" y="821.81" width="0.01" height="0.01"/><polygon class="cls-2" points="265.66 821.81 265.66 821.82 252.29 826.15 252.27 826.18 238.9 813.15 238.91 813.14 265.66 821.81"/><polygon class="cls-2" points="265.66 821.81 238.91 813.14 238.9 813.15 238.85 813.1 257.37 810.41 257.37 810.42 265.66 821.81"/><polygon class="cls-2" points="387.21 813.1 387.17 813.14 360.41 821.81 368.7 810.42 368.7 810.41 387.21 813.1"/><polygon class="cls-2" points="387.17 813.14 373.81 826.18 373.78 826.15 360.41 821.82 360.41 821.81 387.17 813.14"/><polygon class="cls-2" points="376.95 844.48 376.98 844.63 360.4 835.91 360.4 821.83 376.88 844.5 376.95 844.48"/><polygon class="cls-2" points="376.95 844.48 376.88 844.5 360.4 821.83 360.41 821.82 373.78 826.15 373.81 826.18 376.95 844.48"/><polygon class="cls-2" points="368.7 810.41 368.7 810.42 360.41 821.81 360.41 821.82 360.4 821.82 360.4 793.94 360.53 793.88 368.69 810.41 368.7 810.41"/><polygon class="cls-2" points="360.4 793.62 360.53 793.88 360.4 793.94 360.4 821.82 360.39 821.82 360.38 821.81 352.09 810.42 352.09 810.41 352.11 810.41 360.4 793.62"/><polygon class="cls-2" points="360.41 821.82 360.4 821.83 360.4 821.82 360.41 821.82"/><polygon class="cls-2" points="360.4 821.83 360.4 835.91 343.83 844.63 343.85 844.49 343.92 844.5 360.4 821.83"/><polygon class="cls-2" points="360.4 821.82 360.4 821.83 360.39 821.82 360.4 821.82"/><polygon class="cls-2" points="360.39 821.82 360.4 821.83 343.92 844.5 343.85 844.49 346.99 826.18 347.02 826.15 360.39 821.82"/><polygon class="cls-2" points="360.38 821.81 360.39 821.82 347.02 826.15 346.99 826.18 333.63 813.15 333.63 813.14 360.38 821.81"/><polygon class="cls-2" points="360.38 821.81 333.63 813.14 333.63 813.15 333.58 813.1 352.09 810.41 352.09 810.42 360.38 821.81"/><polygon class="cls-2" points="481.94 813.1 481.9 813.14 455.14 821.81 463.43 810.42 463.43 810.41 481.94 813.1"/><polygon class="cls-2" points="481.9 813.14 468.54 826.18 468.51 826.15 455.13 821.82 455.14 821.81 481.9 813.14"/><polygon class="cls-2" points="471.68 844.48 471.7 844.63 455.13 835.91 455.13 821.83 471.61 844.5 471.68 844.48"/><polygon class="cls-2" points="471.68 844.48 471.61 844.5 455.13 821.83 455.13 821.82 468.51 826.15 468.54 826.18 471.68 844.48"/><polygon class="cls-2" points="463.43 810.41 463.43 810.42 455.14 821.81 455.13 821.82 455.13 821.82 455.13 793.94 455.25 793.88 463.42 810.41 463.43 810.41"/><polygon class="cls-2" points="455.13 793.62 455.25 793.88 455.13 793.94 455.13 821.82 455.12 821.82 455.11 821.81 446.82 810.42 446.82 810.41 446.84 810.41 455.13 793.62"/><polygon class="cls-2" points="455.13 821.82 455.13 821.83 455.13 821.82 455.13 821.82"/><polygon class="cls-2" points="455.13 821.83 455.13 835.91 438.56 844.63 438.58 844.49 438.64 844.5 455.13 821.83"/><polygon class="cls-2" points="455.13 821.82 455.13 821.83 455.12 821.82 455.13 821.82"/><polygon class="cls-2" points="455.12 821.82 455.13 821.83 438.64 844.5 438.58 844.49 441.72 826.18 441.74 826.15 455.12 821.82"/><polygon class="cls-2" points="455.11 821.81 455.12 821.82 441.74 826.15 441.72 826.18 428.35 813.15 428.36 813.14 455.11 821.81"/><polygon class="cls-2" points="455.11 821.81 428.36 813.14 428.35 813.15 428.31 813.1 446.82 810.41 446.82 810.42 455.11 821.81"/><polygon class="cls-2" points="549.84 821.81 549.85 821.82 536.47 826.15 536.44 826.18 523.08 813.14 549.84 821.81"/><polygon class="cls-2" points="576.67 813.1 576.63 813.15 576.62 813.14 549.87 821.81 558.16 810.42 558.16 810.41 576.67 813.1"/><polygon class="cls-2" points="576.63 813.15 563.26 826.18 563.24 826.15 549.86 821.82 549.87 821.81 576.62 813.14 576.63 813.15"/><polygon class="cls-2" points="566.4 844.49 566.42 844.63 549.85 835.91 549.85 821.83 566.33 844.5 566.4 844.49"/><polygon class="cls-2" points="563.26 826.18 566.4 844.49 566.33 844.5 549.85 821.83 549.86 821.82 563.24 826.15 563.26 826.18"/><polygon class="cls-2" points="558.16 810.41 558.16 810.42 549.87 821.81 549.86 821.82 549.85 821.82 549.85 793.94 549.98 793.88 558.14 810.41 558.16 810.41"/><polygon class="cls-2" points="549.85 793.62 549.98 793.88 549.85 793.94 549.85 821.82 549.85 821.82 549.84 821.81 541.55 810.42 541.55 810.41 541.56 810.41 549.85 793.62"/><polygon class="cls-2" points="549.86 821.82 549.85 821.83 549.85 821.82 549.86 821.82"/><polygon class="cls-2" points="549.85 821.83 549.85 835.91 533.27 844.63 533.3 844.49 533.37 844.5 549.85 821.83"/><polygon class="cls-2" points="549.85 821.82 549.85 821.83 549.85 821.82 549.85 821.82"/><polygon class="cls-2" points="549.85 821.82 549.85 821.83 533.37 844.5 533.3 844.49 536.44 826.18 536.47 826.15 549.85 821.82"/><polygon class="cls-2" points="549.84 821.81 523.08 813.14 523.04 813.1 541.55 810.41 541.55 810.42 549.84 821.81"/><polygon class="cls-2" points="671.4 813.1 671.35 813.14 644.6 821.81 652.88 810.42 652.88 810.41 671.4 813.1"/><polygon class="cls-2" points="671.35 813.14 657.99 826.18 657.97 826.15 644.6 821.82 644.6 821.81 671.35 813.14"/><polygon class="cls-2" points="661.14 844.49 661.16 844.63 644.58 835.91 644.58 821.83 644.58 821.83 644.59 821.83 661.07 844.5 661.14 844.49"/><polygon class="cls-2" points="657.99 826.18 661.14 844.49 661.07 844.5 644.59 821.83 644.59 821.82 644.6 821.82 657.97 826.15 657.99 826.18"/><polygon class="cls-2" points="652.88 810.41 652.88 810.42 644.6 821.81 644.59 821.82 644.58 821.82 644.58 821.81 644.58 793.94 644.71 793.88 652.87 810.41 652.88 810.41"/><polygon class="cls-2" points="644.58 793.62 644.71 793.88 644.58 793.94 644.58 821.81 644.57 821.81 636.28 810.42 636.28 810.41 636.3 810.41 644.58 793.62"/><polygon class="cls-2" points="644.6 821.81 644.6 821.82 644.59 821.82 644.6 821.81"/><rect class="cls-2" x="644.58" y="821.82" width="0.01" height="0.01"/><polygon class="cls-2" points="644.58 821.83 644.58 835.91 628.01 844.63 628.03 844.49 628.1 844.5 644.58 821.83"/><polygon class="cls-2" points="644.58 821.83 644.58 821.83 628.1 844.5 628.03 844.49 631.18 826.18 631.2 826.15 644.57 821.82 644.58 821.82 644.58 821.83"/><rect class="cls-2" x="644.57" y="821.81" width="0.01" height="0.01"/><polygon class="cls-2" points="644.57 821.81 644.57 821.82 631.2 826.15 631.18 826.18 617.81 813.15 617.82 813.14 644.57 821.81"/><polygon class="cls-2" points="644.57 821.81 617.82 813.14 617.81 813.15 617.76 813.1 636.28 810.41 636.28 810.42 644.57 821.81"/><polyline class="cls-2" points="766.08 813.14 739.32 821.81 747.61 810.42 747.61 810.41 766.13 813.1"/><polyline class="cls-2" points="766.08 813.14 752.72 826.18 752.69 826.15 739.32 821.82 739.32 821.81 766.08 813.14"/><polyline class="cls-2" points="755.89 844.63 739.31 835.91 739.31 821.83 755.79 844.5"/><polyline class="cls-2" points="755.79 844.5 739.31 821.83 739.32 821.82 752.69 826.15 752.72 826.18 755.86 844.48"/><polyline class="cls-2" points="739.44 793.88 747.6 810.41 747.61 810.41 747.61 810.42 739.32 821.81 739.32 821.82 739.31 821.82 739.31 793.94"/><polyline class="cls-2" points="739.31 793.94 739.31 821.82 739.3 821.82 739.29 821.81 731 810.42 731 810.41 731.02 810.41 739.31 793.62"/><polygon class="cls-2" points="739.32 821.82 739.31 821.83 739.31 821.82 739.32 821.82"/><polyline class="cls-2" points="722.83 844.5 739.31 821.83 739.31 835.91 722.74 844.63"/><polygon class="cls-2" points="739.31 821.82 739.31 821.83 739.3 821.82 739.31 821.82"/><polyline class="cls-2" points="722.76 844.49 725.9 826.18 725.93 826.15 739.3 821.82 739.31 821.83 722.83 844.5"/><polyline class="cls-2" points="712.54 813.14 739.29 821.81 739.3 821.82 725.93 826.15 725.9 826.18 712.54 813.15"/><polyline class="cls-2" points="712.49 813.1 731 810.41 731 810.42 739.29 821.81 712.54 813.14"/><polyline class="cls-2" points="860.81 813.14 834.05 821.81 842.34 810.42 842.34 810.41 860.85 813.1"/><polyline class="cls-2" points="860.81 813.14 847.45 826.18 847.43 826.15 834.05 821.82 834.05 821.81 860.81 813.14"/><polyline class="cls-2" points="850.61 844.63 834.04 835.91 834.04 821.83 834.04 821.83 834.04 821.83 850.52 844.5"/><polyline class="cls-2" points="850.52 844.5 834.04 821.83 834.04 821.82 834.05 821.82 847.43 826.15 847.45 826.18 850.59 844.49"/><polyline class="cls-2" points="834.16 793.88 842.33 810.41 842.34 810.41 842.34 810.42 834.05 821.81 834.04 821.82 834.04 821.82 834.04 821.81 834.04 793.94"/><polyline class="cls-2" points="834.04 793.94 834.04 821.81 834.03 821.81 825.74 810.42 825.74 810.41 825.75 810.41 834.04 793.62"/><polygon class="cls-2" points="834.05 821.81 834.05 821.82 834.04 821.82 834.05 821.81"/><rect class="cls-2" x="834.04" y="821.82" width="0.01" height="0.01"/><polyline class="cls-2" points="817.55 844.5 834.04 821.83 834.04 835.91 817.47 844.63"/><polyline class="cls-2" points="820.65 826.15 834.03 821.82 834.04 821.82 834.04 821.83 834.04 821.83 817.55 844.5"/><rect class="cls-2" x="834.03" y="821.81" width="0.01" height="0.01"/><polyline class="cls-2" points="807.27 813.14 834.03 821.81 834.03 821.82 820.65 826.15"/><polyline class="cls-2" points="807.22 813.1 825.74 810.41 825.74 810.42 834.03 821.81 807.27 813.14"/><polygon class="cls-2" points="987.31 813.1 987.26 813.15 987.26 813.14 960.51 821.81 968.8 810.42 968.8 810.41 987.31 813.1"/><polygon class="cls-2" points="987.26 813.15 973.9 826.18 973.88 826.15 960.5 821.82 960.51 821.81 987.26 813.14 987.26 813.15"/><polygon class="cls-2" points="977.04 844.49 977.06 844.63 960.49 835.91 960.49 821.83 976.97 844.5 977.04 844.49"/><polygon class="cls-2" points="973.9 826.18 977.04 844.49 976.97 844.5 960.49 821.83 960.5 821.82 973.88 826.15 973.9 826.18"/><polygon class="cls-2" points="968.8 810.41 968.8 810.42 960.51 821.81 960.5 821.82 960.49 821.82 960.49 793.94 960.62 793.88 968.78 810.41 968.8 810.41"/><polygon class="cls-2" points="960.49 793.62 960.62 793.88 960.49 793.94 960.49 821.82 960.49 821.82 960.48 821.81 952.19 810.42 952.19 810.41 952.2 810.41 960.49 793.62"/><polygon class="cls-2" points="960.5 821.82 960.49 821.83 960.49 821.82 960.5 821.82"/><polygon class="cls-2" points="960.49 821.83 960.49 835.91 943.91 844.63 943.94 844.49 944 844.5 960.49 821.83"/><polygon class="cls-2" points="960.49 821.82 960.49 821.83 960.49 821.82 960.49 821.82"/><polygon class="cls-2" points="960.49 821.82 960.49 821.83 944 844.5 943.94 844.49 947.08 826.18 947.11 826.15 960.49 821.82"/><polygon class="cls-2" points="960.48 821.81 960.49 821.82 947.11 826.15 947.08 826.18 933.72 813.14 960.48 821.81"/><polygon class="cls-2" points="960.48 821.81 933.72 813.14 933.67 813.1 952.19 810.41 952.19 810.42 960.48 821.81"/><polygon class="cls-2" points="1073.69 813.1 1073.64 813.15 1073.63 813.14 1046.88 821.81 1055.17 810.42 1055.17 810.41 1073.69 813.1"/><polygon class="cls-2" points="1073.64 813.15 1060.28 826.18 1060.25 826.15 1046.88 821.82 1046.88 821.81 1073.63 813.14 1073.64 813.15"/><polygon class="cls-2" points="1063.42 844.49 1063.44 844.63 1046.87 835.91 1046.87 821.83 1063.35 844.5 1063.42 844.49"/><polygon class="cls-2" points="1060.28 826.18 1063.42 844.49 1063.35 844.5 1046.87 821.83 1046.88 821.82 1060.25 826.15 1060.28 826.18"/><polygon class="cls-2" points="1055.17 810.41 1055.17 810.42 1046.88 821.81 1046.88 821.82 1046.87 821.82 1046.87 793.94 1047 793.88 1055.16 810.41 1055.17 810.41"/><polygon class="cls-2" points="1046.87 793.62 1047 793.88 1046.87 793.94 1046.87 821.82 1046.86 821.82 1046.86 821.81 1038.57 810.42 1038.57 810.41 1038.58 810.41 1046.87 793.62"/><polygon class="cls-2" points="1046.88 821.82 1046.87 821.83 1046.87 821.82 1046.88 821.82"/><polygon class="cls-2" points="1046.87 821.83 1046.87 835.91 1030.29 844.63 1030.32 844.49 1030.38 844.5 1046.87 821.83"/><polygon class="cls-2" points="1046.87 821.82 1046.87 821.83 1046.86 821.82 1046.87 821.82"/><polygon class="cls-2" points="1046.86 821.82 1046.87 821.83 1030.38 844.5 1030.32 844.49 1033.46 826.18 1033.49 826.15 1046.86 821.82"/><polygon class="cls-2" points="1046.86 821.81 1046.86 821.82 1033.49 826.15 1033.46 826.18 1020.1 813.14 1046.86 821.81"/><polygon class="cls-2" points="1046.86 821.81 1020.1 813.14 1020.05 813.1 1038.57 810.41 1038.57 810.42 1046.86 821.81"/></g></svg>