<svg xmlns="http://www.w3.org/2000/svg" xmlns:xlink="http://www.w3.org/1999/xlink" viewBox="0 0 1280 1024"><defs><style>.cls-1{fill:none;}.cls-2{isolation:isolate;}.cls-3{fill:url(#名称未設定グラデーション_9);}.cls-4{clip-path:url(#clip-path);}.cls-5,.cls-6{fill:#fff;}.cls-6{opacity:0.3;mix-blend-mode:overlay;}.cls-7{fill:url(#名称未設定グラデーション_7);}.cls-8{fill:url(#名称未設定グラデーション_12);}.cls-9{fill:url(#名称未設定グラデーション_12-2);}.cls-10{fill:url(#名称未設定グラデーション_12-3);}.cls-11{fill:url(#名称未設定グラデーション_12-4);}.cls-12{fill:#34cdd7;}.cls-13{fill:#018080;}</style><radialGradient id="名称未設定グラデーション_9" cx="576.78" cy="325.87" r="296.89" gradientUnits="userSpaceOnUse"><stop offset="0" stop-color="#34cdd7"/><stop offset="0.21" stop-color="#2ba6b0"/><stop offset="0.68" stop-color="#16454f"/><stop offset="1" stop-color="#06000a"/></radialGradient><clipPath id="clip-path"><ellipse id="天球" class="cls-1" cx="574.95" cy="326" rx="299.05" ry="299"/></clipPath><linearGradient id="名称未設定グラデーション_7" x1="160.57" y1="396.29" x2="1083.78" y2="396.29" gradientUnits="userSpaceOnUse"><stop offset="0" stop-color="#002c37"/><stop offset="0.31" stop-color="#031924"/><stop offset="0.72" stop-color="#050711"/><stop offset="1" stop-color="#06000a"/></linearGradient><linearGradient id="名称未設定グラデーション_12" x1="910.99" y1="584.48" x2="942.14" y2="584.48" gradientTransform="matrix(0.83, -0.55, 0.55, 0.83, -128.11, 640.22)" gradientUnits="userSpaceOnUse"><stop offset="0.13" stop-color="#00222a"/><stop offset="0.56" stop-color="#030f18"/><stop offset="1" stop-color="#06000a"/></linearGradient><linearGradient id="名称未設定グラデーション_12-2" x1="1021.99" y1="580.48" x2="1053.14" y2="580.48" xlink:href="#名称未設定グラデーション_12"/><linearGradient id="名称未設定グラデーション_12-3" x1="917.86" y1="587.86" x2="1906.75" y2="254.55" gradientTransform="matrix(1, 0, 0, 1, 0, 0)" xlink:href="#名称未設定グラデーション_12"/><linearGradient id="名称未設定グラデーション_12-4" x1="896.85" y1="556.62" x2="1030.44" y2="468.11" gradientTransform="matrix(1, 0, 0, 1, 0, 0)" xlink:href="#名称未設定グラデーション_12"/></defs><title>base</title><g class="cls-2"><g id="天球-2" data-name="天球"><circle id="天球-3" data-name="天球" class="cls-3" cx="576.78" cy="325.87" r="296.89"/><g class="cls-4"><g id="Wing"><path class="cls-5" d="M609,381c-39.1-29.14-99.07-86-118-154-9.75-35-10-117,47-160-80.29-11.9-116,71-118,131-7-31-10-89,8-138-78,63-79,212-10,324-35-25-97-176-82-278-50,93,21,210,33,226-57-60-77.76-128.76-81-142-42,92,73,253,190,311-86-17-179-122-206-201.8C260.39,429.45,339.6,558.32,470,589c0,0-11,1-28-2,47,53,300,101,393-104C754.72,474.9,658.24,417.7,609,381ZM504,79c-75,79-61,262,169,371C401,360,403,130,504,79ZM407,98.18C391.79,175.45,392,356,595,489,396,428,350,207,407,98.18ZM293,239c67,177,260,286,385,288C550,574,302,395,293,239Zm-6.45,129.35c-1.61-5.57-5.31-24.78-5.55-31.35,26,97.51,169,228,414,207-86,24-187.56,8.34-267-29C356.09,481.2,308.42,444.08,286.55,368.35ZM311.75,450C404,545.7,538.69,569,666,561,525,623,352.78,565.06,311.75,450ZM459.07,594.74C524.66,598.2,615.45,604.68,676,572c34.33-18.53,50-25,72-46-55.75,1.75-228-96-263-166,54,48,188,139,318,145C713,632,520.54,626.43,459.07,594.74Z"/><path class="cls-5" d="M486.33,355.71h0Z"/><path class="cls-5" d="M614,570c-120,25-241-30-268.19-78.28C384,530,486,574,614,570Z"/></g><rect id="クリア" class="cls-6" x="415.4" y="-91.27" width="100.77" height="602" transform="translate(325.09 -281.34) rotate(49.77)"/></g><g id="おおぐま座"><polygon class="cls-5" points="519.49 281.61 521.98 273.56 516.76 266.93 525.19 266.82 529.88 259.8 532.59 267.79 540.71 270.08 533.96 275.13 534.29 283.56 527.4 278.69 519.49 281.61"/><polygon class="cls-5" points="568.58 299.33 571.07 291.27 565.85 284.65 574.28 284.53 578.97 277.52 581.68 285.5 589.8 287.79 583.05 292.84 583.38 301.27 576.49 296.41 568.58 299.33"/><polygon class="cls-5" points="609.11 313.05 611.6 304.99 606.38 298.37 614.81 298.25 619.5 291.24 622.22 299.22 630.33 301.51 623.58 306.56 623.91 314.99 617.02 310.12 609.11 313.05"/><polygon class="cls-5" points="610.15 272.85 612.64 264.8 607.42 258.17 615.85 258.06 620.54 251.04 623.26 259.03 631.37 261.31 624.62 266.37 624.95 274.8 618.06 269.93 610.15 272.85"/><polygon class="cls-5" points="554.21 236.3 556.71 228.24 551.49 221.62 559.92 221.5 564.6 214.49 567.32 222.47 575.44 224.76 568.68 229.81 569.02 238.24 562.13 233.38 554.21 236.3"/><polygon class="cls-5" points="528.19 211.62 530.68 203.57 525.46 196.94 533.89 196.83 538.58 189.81 541.29 197.8 549.41 200.09 542.66 205.14 542.99 213.56 536.1 208.7 528.19 211.62"/><polygon class="cls-5" points="664.12 394.02 666.61 385.96 661.39 379.34 669.82 379.22 674.5 372.21 677.22 380.19 685.34 382.48 678.59 387.53 678.92 395.96 672.03 391.1 664.12 394.02"/><polygon class="cls-5" points="750.34 337.81 752.84 329.76 747.61 323.13 756.05 323.02 760.73 316 763.45 323.99 771.57 326.28 764.81 331.33 765.14 339.75 758.25 334.89 750.34 337.81"/><polygon class="cls-5" points="673.99 248.95 676.48 240.9 671.26 234.28 679.69 234.16 684.37 227.14 687.09 235.13 695.21 237.42 688.46 242.47 688.79 250.9 681.9 246.03 673.99 248.95"/><polygon class="cls-5" points="668.86 215.27 671.35 207.21 666.13 200.59 674.56 200.47 679.25 193.46 681.97 201.44 690.08 203.73 683.33 208.78 683.66 217.21 676.77 212.35 668.86 215.27"/><polygon class="cls-5" points="661.17 188.82 663.67 180.77 658.44 174.15 666.88 174.03 671.56 167.01 674.28 175 682.4 177.29 675.64 182.34 675.98 190.77 669.09 185.9 661.17 188.82"/><polygon class="cls-5" points="645.71 139.79 648.2 131.73 642.98 125.11 651.41 124.99 656.1 117.98 658.81 125.96 666.93 128.25 660.18 133.3 660.51 141.73 653.62 136.87 645.71 139.79"/><polygon class="cls-5" points="595.7 127.38 598.19 119.33 592.97 112.7 601.4 112.58 606.09 105.57 608.81 113.56 616.92 115.84 610.17 120.89 610.5 129.32 603.61 124.46 595.7 127.38"/></g></g><g id="輪"><path class="cls-7" d="M1077.6,194.23c-23.44-52.84-109.94-70.9-226.31-56.3,70.81-.42,121.74,17.48,138.16,54.5C1025.6,273.9,881,417.11,666.42,512.3S248.63,618.61,212.49,537.14c-13.75-31-1.34-70.92,31.13-113.74-66.39,65.83-97.17,129.17-76.87,174.94C208.09,691.52,445.5,676.59,697,565S1118.94,287.41,1077.6,194.23Z"/></g><g id="UFO"><path class="cls-8" d="M952.07,593c-7.17,4.75-7.35,17.11,1,29.65s23.63,19.43,30.8,14.68,4.57-17.67-3.74-30.21S959.24,588.2,952.07,593Z"/><path class="cls-5" d="M978.77,630.49c-4.22,2.79-14.55-2.63-19.44-10s-4.59-14.35-.38-17.15,11.6.92,16.49,8.3S983,627.7,978.77,630.49Z"/><path class="cls-9" d="M1044.46,559.63c8.31,12.54,19.2,20,26.37,15.22s6.8-21.55-1.51-34.09-19.76-17.2-26.93-12.45S1036.15,547.08,1044.46,559.63Z"/><path class="cls-5" d="M1050.72,557c-4.75-7.17-5.28-15.18-1.18-17.9s10.45-.34,15.2,6.83,5.68,18.48,1.58,21.19S1055.47,564.16,1050.72,557Z"/><g id="_グループ_" data-name="&lt;グループ&gt;"><path class="cls-10" d="M1046.75,492.73C1074,479.32,1130,464.89,1105.46,506c-8.8,14.79-21.79,28.76-35.69,41.8-6,5.63-12.16,11.09-18.23,16.37q-3.88,3.38-7.69,6.65a369.37,369.37,0,0,1-65.87,45c-1.89,1-25.19,12.28-27.4,13.23-14.9,6.39-42.68,16.7-54.92,6.49-13.11-11,12.19-34.86,22.4-45.63-15.33,22.67-23.56,48.29,14.24,36.49,39.63-12.38,79.84-41.62,111-67,17.55-14.26,35.53-30.24,48.83-47.37C1120.13,476.11,1075.61,484.06,1046.75,492.73Z"/><path class="cls-5" d="M1046.75,492.73c28.86-8.67,73.38-16.62,45.43,19.4-13.3,17.13-31.28,33.11-48.83,47.37-31.21,25.36-71.42,54.6-111,67-37.8,11.8-29.57-13.82-14.24-36.49l.36-.81,3.45-1.32c11.4-4.35,26-12.6,41.15-22.66,32.86-21.77,68.59-52,81.37-69.39l2.3-3.12Z"/><path class="cls-11" d="M1043.91,489.93l2.8,2.74,0,0-2.3,3.12c-12.78,17.39-48.51,47.62-81.37,69.39-15.18,10.06-29.75,18.31-41.15,22.66l-3.45,1.32-2-3.12c-11.61-18.45-15.56-38.85-11.42-59a82,82,0,0,1,28.9-47,77.52,77.52,0,0,1,51.65-17.5C1006.29,463.39,1026.46,472.85,1043.91,489.93Zm-8.11,5.34c-35.7-32.55-74.44-25.79-96.22-8.21-23.2,18.74-37,56.51-16.34,92.65C959.27,564.45,1016.81,518.27,1035.8,495.27Z"/><path class="cls-5" d="M939.58,487.06c21.78-17.58,60.52-24.34,96.22,8.21-19,23-76.53,69.18-112.56,84.44C902.62,543.57,916.38,505.8,939.58,487.06Z"/></g><path d="M941.29,568.06c-6.11,6-15.12,5-18.81-2.49-2.42-4.93-2.12-11.87,2-15.47a12.3,12.3,0,0,1,16.78,18Zm-15.16-6.21c1.71,5.3,8.75,5.81,12.39,1.59a6.82,6.82,0,0,0,1.32-6.5,7,7,0,0,0-12-2.44A8.69,8.69,0,0,0,926.13,561.85Z"/><path d="M1023.4,497.28a11.89,11.89,0,0,1-1.84,8.85c-6.45,9.41-21.66,6.77-22.62-4.59a14.27,14.27,0,0,1,1.75-8.63C1006.66,483.19,1021.14,486.1,1023.4,497.28Zm-12.29,9.82c7.63-.58,10.66-9.24,5-13.47a8.54,8.54,0,0,0-6.63-1.42,7.69,7.69,0,0,0-1.42,14.27A5.77,5.77,0,0,0,1011.11,507.1Z"/><path class="cls-5" d="M1016.11,493.63c5.66,4.23,2.63,12.89-5,13.47a5.77,5.77,0,0,1-3.05-.62,7.69,7.69,0,0,1,1.42-14.27A8.54,8.54,0,0,1,1016.11,493.63Z"/></g><g id="タイトル"><g id="タイトル-2" data-name="タイトル"><path d="M221,703.5c-5.18-3.11-16.43-7-25.46-7-10.8,0-24.12,4.74-24.12,20.72,0,12,9.77,16.57,23.83,23.08,17.76,8.29,30.33,15.84,30.33,34,0,22.34-14.79,31.66-32.85,31.66-10.8,0-25-2.81-35.37-7.54l2.37-8.29c9.62,4.29,22.05,7.4,32.71,7.4,11.83,0,23.82-5.18,23.82-22.79,0-12.58-9.91-19.24-26-26.64-16.43-7.69-28-13.46-28-30.63,0-20.71,16.13-29.3,32.41-29.3,11.54,0,23.38,3.85,29.15,7.11Z"/><path d="M233.56,747c0-32.41,14.8-59.19,51.65-59.19s51.64,26.78,51.64,59.34c0,30.78-13.17,59.64-51.64,59.64-30,0-51.65-18.5-51.65-59.64Zm9.77.3c0,37.44,18.65,51.2,41.88,51.2,24.56,0,41.88-15.1,41.88-51.35,0-30.48-12.28-51-41.88-51-29.45,0-41.88,20.71-41.88,51Z"/><path d="M406.41,776.15c-6.07-14.8-11.4-21.45-22.79-22.64h-22.5v50.61h-8.73V690.47h25.16c21.9,0,40.1,4.74,40.1,29.16,0,19.53-11.69,26.78-22.49,30,7.84,2.67,13.32,8.29,18.64,21.61,4,10.06,9.33,23.23,12.88,32.85h-9.92C414.25,796.13,410.4,785.92,406.41,776.15Zm2.22-55.64c0-16.72-11.69-21.9-30.34-21.9H361.12v47.06h25.46C397.08,744,408.63,737.38,408.63,720.51Z"/><path d="M467.52,690.47h8.29l44.1,113.65H509.84l-14-36.55H446.66L432.9,804.12h-9.48ZM493.42,760l-22.05-58.89L449.17,760Z"/><path d="M521.54,748.63c0-32.41,11.69-60.82,50.75-60.82a82.08,82.08,0,0,1,29.45,5.62l-1.63,8.29a77.16,77.16,0,0,0-27.52-5.48c-32.41,0-41.29,26.2-41.29,52.68,0,25.61,9.92,48.69,41.59,48.69,9.91,0,22.34-2.66,29-5.33l1.33,8.44c-6.36,2.66-19.68,5.47-30.63,5.47-38.47,0-51.05-25.15-51.05-57.41Z"/><path d="M609.73,747c0-32.41,14.8-59.19,51.65-59.19S713,714.59,713,747.15c0,30.78-13.17,59.64-51.64,59.64-30,0-51.65-18.5-51.65-59.64Zm9.77.3c0,37.44,18.65,51.2,41.88,51.2,24.56,0,41.88-15.1,41.88-51.35,0-30.48-12.28-51-41.88-51s-41.88,20.71-41.88,51Z"/><path d="M785.83,800.72h-8.14l-37.44-98.41-5,101.81h-8.73l6.07-113.65h12.13l37.44,98.11,38.77-98.11h12.58l5.77,113.65h-9.47L825.19,702Z"/><path d="M949.65,806.49c-28,0-42.47-16.72-42.47-38.77V690.47h9.32v74c0,17.61,8,33.89,33.29,33.89s33.45-16.28,33.45-33.89v-74h9.17v77.25c0,22-14.35,38.77-42.62,38.77Z"/><path d="M1083.72,753.22h-31.38v-8h40V800c-7,3.1-21.9,6.21-33.89,6.21-38.62,0-51.2-25.15-51.2-57.41,0-32.56,11.69-61,50.91-61a82.68,82.68,0,0,1,29.44,5.62l-1.77,8.29a76,76,0,0,0-27.53-5.48c-32.4,0-41.28,26.2-41.28,52.68,0,25.61,9.32,49,41.73,49,8.88,0,19.09-1.93,25-4.44Z"/><path d="M185.87,977.4c-17.18,0-23.51-10.79-23.51-21.49V912.33h1.71v42.91c0,10,5.47,20.5,21.89,20.5s21.88-10.46,21.88-20.5V912.33h1.71v43.58c0,10.7-6.24,21.49-23.59,21.49Z"/><path d="M265.55,932.75a27.91,27.91,0,0,0-13-3.07c-4.1,0-11.88,1.91-11.88,9.88,0,6,3.76,8.13,11.88,11C261,953.66,267,956.82,267,964.2c0,9.8-7.1,12.95-14.45,12.95a44,44,0,0,1-15.73-3.07l.6-1.58a37.83,37.83,0,0,0,15.05,3c6.49,0,12.82-2.41,12.82-11.12,0-6.31-4.7-9-13.59-12.28-7.44-2.74-12.66-4.9-12.66-12.53,0-8.55,7.53-11.46,13.51-11.46a31,31,0,0,1,13.59,3.16Z"/><path d="M314.79,975.57a37.83,37.83,0,0,0,15.9-3.23l.43,1.57a40.34,40.34,0,0,1-16.42,3.32c-10.94,0-22.06-5.47-22.06-23.81,0-15.36,8-25.9,20.78-25.9,10.6,0,18.55,5.56,18.55,21.75v.91H294.44c-1.37,19.42,8.89,25.39,20.26,25.39Zm-1.63-46.47c-10,0-17,7.3-18.64,19.5h35.74c-.34-13.61-6.15-19.5-17-19.5Z"/><path d="M382,928.35l-.17,1.58c-6.75,0-14.28,3.57-17.61,11v35.1h-1.71V942.88c0-5.57-.43-11.21-1.28-13.7l1.45-.33a29.8,29.8,0,0,1,1.54,9.63C367.7,931.67,375,928.35,382,928.35Z"/><path d="M483.12,946.2H462v-1.66h22.74v29c-3.76,1.83-13,3.73-19.83,3.73-20.35,0-27.79-13.44-27.79-32.11,0-18.84,6.84-34.36,27.61-34.36a45,45,0,0,1,18,3.73l-.42,1.5a47.78,47.78,0,0,0-17.53-3.57c-21.37,0-26,17.76-26,32.7,0,14.52,5.13,30.45,26.16,30.45,6.5,0,14-1.41,18.13-3.23Z"/><path d="M535.35,928.35l-.17,1.58c-6.76,0-14.28,3.57-17.61,11v35.1h-1.71V942.88c0-5.57-.43-11.21-1.29-13.7l1.46-.33a30.08,30.08,0,0,1,1.54,9.63C521.07,931.67,528.34,928.35,535.35,928.35Z"/><path d="M598.78,952.58c0,13.37-5.47,24.82-21.28,24.82S556.21,966,556.21,952.5c0-13.28,5.55-24.73,21.29-24.73s21.28,11.45,21.28,24.73Zm-21.2,23.24c13.59,0,19.41-9.29,19.41-23.32s-5.82-23.15-19.49-23.15S558,938.56,558,952.5s5.9,23.32,19.5,23.32Z"/><path d="M643.15,977.65c-9.15,0-14.7-5.15-14.7-18.09V929.1h1.71v30.46c0,7.47,1.53,16.43,13,16.43a27.76,27.76,0,0,0,19.49-9V929.1h1.71v39.67a22.93,22.93,0,0,0,1.46,8.13l-1.54.33a24.14,24.14,0,0,1-1.63-8.38C657.6,974.08,649.82,977.65,643.15,977.65Z"/><path d="M719.32,928c9.15,0,18.13,5.39,18.13,22.66,0,13.61-4.36,26.22-19.84,26.22-6.84,0-13.51-3.23-17.1-7.47v25.73H698.8V937.23a27.06,27.06,0,0,0-1.28-8.05l1.37-.33a30.23,30.23,0,0,1,1.62,9.88A20.66,20.66,0,0,1,719.24,928Zm-18.81,34.69a36.58,36.58,0,0,0,.17,4.48,21.72,21.72,0,0,0,17.19,8.14c11.88,0,17.87-8.3,17.87-24.49,0-12.11-5-21.24-16.5-21.24a19.67,19.67,0,0,0-18.56,11.86c-.08,1.17-.17,3.24-.17,4.74Z"/><path d="M802.76,912.33h1.71v57.6c0,9.05-4.28,15.19-12.4,18.26l-.77-1.33c6.93-2.74,11.46-7.8,11.46-17.18Z"/><path d="M855.5,912.33h1.37l25.65,63.74h-1.79L871.49,953H840.88l-9.14,23.07h-1.8Zm15.31,39.09-14.62-36.84-14.71,36.84Z"/><path d="M907.91,976.07V912.33h12.57c16.24,0,25,4.07,25,17.27,0,13.69-8.9,19.42-22.15,19.42H909.62v27.05ZM923,947.36c8.89,0,20.78-2.33,20.78-17.68,0-13-9.75-15.69-23.26-15.69H909.62v33.37Z"/><path d="M991.77,912.33h1.37l25.65,63.74H1017L1007.76,953H977.15L968,976.07h-1.8Zm15.31,39.09-14.62-36.84-14.71,36.84Z"/><path d="M1045.72,976.07H1044V912.33h1.88l41.72,60.75V912.33h1.71v63.74h-1.62l-42-61.16Z"/><polygon class="cls-12" points="226.72 844.39 226.67 844.43 197.3 853.95 206.4 841.44 206.4 841.43 226.72 844.39"/><polygon class="cls-12" points="226.67 844.43 212.01 858.74 211.98 858.72 197.3 853.96 197.3 853.95 226.67 844.43"/><polygon class="cls-13" points="215.46 878.84 215.48 879 197.28 869.43 197.28 853.97 197.28 853.97 197.29 853.97 215.38 878.85 215.46 878.84"/><polygon class="cls-13" points="212.01 858.74 215.46 878.84 215.38 878.85 197.29 853.97 197.29 853.96 197.3 853.96 211.98 858.72 212.01 858.74"/><polygon class="cls-13" points="206.4 841.43 206.4 841.44 197.3 853.95 197.29 853.96 197.28 853.96 197.28 853.95 197.28 823.35 197.42 823.28 206.38 841.43 206.4 841.43"/><polygon class="cls-13" points="197.28 823 197.42 823.28 197.28 823.35 197.28 853.95 197.27 853.95 188.17 841.44 188.17 841.43 188.19 841.43 197.28 823"/><polygon class="cls-5" points="197.3 853.95 197.3 853.96 197.29 853.96 197.3 853.95"/><rect class="cls-5" x="197.28" y="853.96" width="0.01" height="0.01"/><polygon class="cls-13" points="197.28 853.97 197.28 869.43 179.09 879 179.11 878.84 179.19 878.85 197.28 853.97"/><polygon class="cls-13" points="197.28 853.97 197.28 853.97 179.19 878.85 179.11 878.84 182.56 858.74 182.59 858.72 197.27 853.96 197.28 853.96 197.28 853.97"/><rect class="cls-5" x="197.27" y="853.95" width="0.01" height="0.01"/><polygon class="cls-12" points="197.27 853.95 197.27 853.96 182.59 858.72 182.56 858.74 167.89 844.44 167.9 844.43 197.27 853.95"/><polygon class="cls-12" points="197.27 853.95 167.9 844.43 167.89 844.44 167.84 844.39 188.17 841.43 188.17 841.44 197.27 853.95"/><polygon class="cls-12" points="330.72 844.39 330.67 844.43 301.29 853.95 310.39 841.44 310.39 841.43 330.72 844.39"/><polygon class="cls-12" points="330.67 844.43 316 858.74 315.97 858.72 301.29 853.96 301.29 853.95 330.67 844.43"/><polygon class="cls-12" points="319.45 878.84 319.48 879 301.28 869.43 301.28 853.97 319.37 878.85 319.45 878.84"/><polygon class="cls-12" points="319.45 878.84 319.37 878.85 301.28 853.97 301.29 853.96 315.97 858.72 316 858.74 319.45 878.84"/><polygon class="cls-13" points="310.39 841.43 310.39 841.44 301.29 853.95 301.29 853.96 301.28 853.96 301.28 823.35 301.42 823.28 310.38 841.43 310.39 841.43"/><polygon class="cls-13" points="301.28 823 301.42 823.28 301.28 823.35 301.28 853.96 301.27 853.96 301.26 853.95 292.16 841.44 292.16 841.43 292.18 841.43 301.28 823"/><polygon class="cls-5" points="301.29 853.96 301.28 853.97 301.28 853.96 301.29 853.96"/><polygon class="cls-12" points="301.28 853.97 301.28 869.43 283.08 879 283.11 878.84 283.18 878.85 301.28 853.97"/><polygon class="cls-5" points="301.28 853.96 301.28 853.97 301.27 853.96 301.28 853.96"/><polygon class="cls-12" points="301.27 853.96 301.28 853.97 283.18 878.85 283.11 878.84 286.56 858.74 286.58 858.72 301.27 853.96"/><polygon class="cls-13" points="301.26 853.95 301.27 853.96 286.58 858.72 286.56 858.74 271.88 844.44 271.89 844.43 301.26 853.95"/><polygon class="cls-13" points="301.26 853.95 271.89 844.43 271.88 844.44 271.84 844.39 292.16 841.43 292.16 841.44 301.26 853.95"/><polygon class="cls-13" points="434.71 844.39 434.67 844.43 405.29 853.95 414.39 841.44 414.39 841.43 434.71 844.39"/><polygon class="cls-13" points="434.67 844.43 420 858.74 419.96 858.72 405.28 853.96 405.29 853.95 434.67 844.43"/><polygon class="cls-13" points="423.45 878.84 423.47 879 405.27 869.43 405.27 853.97 423.37 878.85 423.45 878.84"/><polygon class="cls-13" points="423.45 878.84 423.37 878.85 405.27 853.97 405.28 853.96 419.96 858.72 420 858.74 423.45 878.84"/><polygon class="cls-12" points="414.39 841.43 414.39 841.44 405.29 853.95 405.28 853.96 405.27 853.96 405.27 823.35 405.41 823.28 414.37 841.43 414.39 841.43"/><polygon class="cls-12" points="405.27 823 405.41 823.28 405.27 823.35 405.27 853.96 405.26 853.96 405.26 853.95 396.16 841.44 396.16 841.43 396.17 841.43 405.27 823"/><polygon class="cls-5" points="405.28 853.96 405.27 853.97 405.27 853.96 405.28 853.96"/><polygon class="cls-13" points="405.27 853.97 405.27 869.43 387.08 879 387.11 878.84 387.18 878.85 405.27 853.97"/><polygon class="cls-5" points="405.27 853.96 405.27 853.97 405.26 853.96 405.27 853.96"/><polygon class="cls-13" points="405.26 853.96 405.27 853.97 387.18 878.85 387.11 878.84 390.56 858.74 390.58 858.72 405.26 853.96"/><polygon class="cls-12" points="405.26 853.95 405.26 853.96 390.58 858.72 390.56 858.74 375.88 844.44 375.89 844.43 405.26 853.95"/><polygon class="cls-12" points="405.26 853.95 375.89 844.43 375.88 844.44 375.83 844.39 396.16 841.43 396.16 841.44 405.26 853.95"/><polygon class="cls-13" points="509.25 853.95 509.26 853.96 494.58 858.72 494.54 858.74 479.88 844.43 509.25 853.95"/><polygon class="cls-13" points="538.71 844.39 538.66 844.44 538.65 844.43 509.29 853.95 518.38 841.44 518.38 841.43 538.71 844.39"/><polygon class="cls-13" points="538.66 844.44 523.99 858.74 523.96 858.72 509.28 853.96 509.29 853.95 538.65 844.43 538.66 844.44"/><polygon class="cls-13" points="527.44 878.84 527.46 879 509.27 869.43 509.27 853.97 527.36 878.85 527.44 878.84"/><polygon class="cls-13" points="523.99 858.74 527.44 878.84 527.36 878.85 509.27 853.97 509.28 853.96 523.96 858.72 523.99 858.74"/><polygon class="cls-13" points="518.38 841.43 518.38 841.44 509.29 853.95 509.28 853.96 509.27 853.96 509.27 823.35 509.41 823.28 518.37 841.43 518.38 841.43"/><polygon class="cls-13" points="509.27 823 509.41 823.28 509.27 823.35 509.27 853.96 509.26 853.96 509.25 853.95 500.15 841.44 500.15 841.43 500.17 841.43 509.27 823"/><polygon class="cls-5" points="509.28 853.96 509.27 853.97 509.27 853.96 509.28 853.96"/><polygon class="cls-13" points="509.27 853.97 509.27 869.43 491.07 879 491.09 878.84 491.17 878.85 509.27 853.97"/><polygon class="cls-5" points="509.27 853.96 509.27 853.97 509.26 853.96 509.27 853.96"/><polygon class="cls-13" points="509.26 853.96 509.27 853.97 491.17 878.85 491.09 878.84 494.54 858.74 494.58 858.72 509.26 853.96"/><polygon class="cls-13" points="509.25 853.95 479.88 844.43 479.83 844.39 500.15 841.43 500.15 841.44 509.25 853.95"/><polygon class="cls-12" points="642.71 844.39 642.66 844.43 613.28 853.95 622.38 841.44 622.38 841.43 642.71 844.39"/><polygon class="cls-12" points="642.66 844.43 627.99 858.74 627.96 858.72 613.28 853.96 613.28 853.95 642.66 844.43"/><polygon class="cls-13" points="631.44 878.84 631.46 879 613.26 869.43 613.26 853.97 613.26 853.97 613.27 853.97 631.37 878.85 631.44 878.84"/><polygon class="cls-13" points="627.99 858.74 631.44 878.84 631.37 878.85 613.27 853.97 613.27 853.96 613.28 853.96 627.96 858.72 627.99 858.74"/><polygon class="cls-13" points="622.38 841.43 622.38 841.44 613.28 853.95 613.27 853.96 613.26 853.96 613.26 853.95 613.26 823.35 613.4 823.28 622.36 841.43 622.38 841.43"/><polygon class="cls-13" points="613.26 823 613.4 823.28 613.26 823.35 613.26 853.95 613.26 853.95 604.16 841.44 604.16 841.43 604.17 841.43 613.26 823"/><polygon class="cls-5" points="613.28 853.95 613.28 853.96 613.27 853.96 613.28 853.95"/><rect class="cls-5" x="613.26" y="853.96" width="0.01" height="0.01"/><polygon class="cls-13" points="613.26 853.97 613.26 869.43 595.07 879 595.1 878.84 595.17 878.85 613.26 853.97"/><polygon class="cls-13" points="613.26 853.97 613.26 853.97 595.17 878.85 595.1 878.84 598.55 858.74 598.57 858.72 613.26 853.96 613.26 853.96 613.26 853.97"/><rect class="cls-5" x="613.26" y="853.95" width="0.01" height="0.01"/><polygon class="cls-13" points="613.26 853.95 613.26 853.96 598.57 858.72 598.55 858.74 583.87 844.44 583.88 844.43 613.26 853.95"/><polygon class="cls-13" points="613.26 853.95 583.88 844.43 583.87 844.44 583.82 844.39 604.16 841.43 604.16 841.44 613.26 853.95"/><polyline class="cls-12" points="746.65 844.43 717.28 853.95 726.38 841.44 726.38 841.43 746.7 844.39"/><polyline class="cls-12" points="746.65 844.43 731.99 858.74 731.95 858.72 717.27 853.96 717.28 853.95 746.65 844.43"/><polyline class="cls-12" points="735.46 879 717.26 869.43 717.26 853.97 735.35 878.85"/><polyline class="cls-12" points="735.35 878.85 717.26 853.97 717.27 853.96 731.95 858.72 731.99 858.74 735.43 878.84"/><polyline class="cls-13" points="717.4 823.28 726.36 841.43 726.38 841.43 726.38 841.44 717.28 853.95 717.27 853.96 717.26 853.96 717.26 823.35"/><polyline class="cls-13" points="717.26 823.35 717.26 853.96 717.25 853.96 717.24 853.95 708.14 841.44 708.14 841.43 708.16 841.43 717.26 823"/><polygon class="cls-5" points="717.27 853.96 717.26 853.97 717.26 853.96 717.27 853.96"/><polyline class="cls-12" points="699.17 878.85 717.26 853.97 717.26 869.43 699.07 879"/><polygon class="cls-5" points="717.26 853.96 717.26 853.97 717.25 853.96 717.26 853.96"/><polyline class="cls-12" points="699.09 878.84 702.54 858.74 702.57 858.72 717.25 853.96 717.26 853.97 699.17 878.85"/><polyline class="cls-13" points="687.88 844.43 717.24 853.95 717.25 853.96 702.57 858.72 702.54 858.74 687.87 844.44"/><polyline class="cls-13" points="687.82 844.39 708.14 841.43 708.14 841.44 717.24 853.95 687.88 844.43"/><polyline class="cls-13" points="850.65 844.43 821.27 853.95 830.37 841.44 830.37 841.43 850.7 844.39"/><polyline class="cls-13" points="850.65 844.43 835.98 858.74 835.96 858.72 821.27 853.96 821.27 853.95 850.65 844.43"/><polyline class="cls-12" points="839.46 879 821.26 869.43 821.26 853.97 821.26 853.97 821.26 853.97 839.36 878.85"/><polyline class="cls-12" points="839.36 878.85 821.26 853.97 821.26 853.96 821.27 853.96 835.96 858.72 835.98 858.74 839.43 878.84"/><polyline class="cls-13" points="821.4 823.28 830.36 841.43 830.37 841.43 830.37 841.44 821.27 853.95 821.26 853.96 821.26 853.96 821.26 853.95 821.26 823.35"/><polyline class="cls-13" points="821.26 823.35 821.26 853.95 821.25 853.95 812.15 841.44 812.15 841.43 812.16 841.43 821.26 823"/><polygon class="cls-5" points="821.27 853.95 821.27 853.96 821.26 853.96 821.27 853.95"/><rect class="cls-5" x="821.26" y="853.96" width="0.01" height="0.01"/><polyline class="cls-12" points="803.16 878.85 821.26 853.97 821.26 869.43 803.06 879"/><polyline class="cls-12" points="806.56 858.72 821.25 853.96 821.26 853.96 821.26 853.97 821.26 853.97 803.16 878.85"/><rect class="cls-5" x="821.25" y="853.95" width="0.01" height="0.01"/><polyline class="cls-13" points="791.87 844.43 821.25 853.95 821.25 853.96 806.56 858.72"/><polyline class="cls-13" points="791.82 844.39 812.15 841.43 812.15 841.44 821.25 853.95 791.87 844.43"/><polygon class="cls-13" points="989.53 844.39 989.48 844.44 989.47 844.43 960.1 853.95 969.2 841.44 969.2 841.43 989.53 844.39"/><polygon class="cls-13" points="989.48 844.44 974.8 858.74 974.78 858.72 960.09 853.96 960.1 853.95 989.47 844.43 989.48 844.44"/><polygon class="cls-12" points="978.25 878.84 978.28 879 960.09 869.43 960.09 853.97 978.18 878.85 978.25 878.84"/><polygon class="cls-12" points="974.8 858.74 978.25 878.84 978.18 878.85 960.09 853.97 960.09 853.96 974.78 858.72 974.8 858.74"/><polygon class="cls-13" points="969.2 841.43 969.2 841.44 960.1 853.95 960.09 853.96 960.09 853.96 960.09 823.35 960.23 823.28 969.18 841.43 969.2 841.43"/><polygon class="cls-13" points="960.09 823 960.23 823.28 960.09 823.35 960.09 853.96 960.08 853.96 960.07 853.95 950.97 841.44 950.97 841.43 950.99 841.43 960.09 823"/><polygon class="cls-5" points="960.09 853.96 960.09 853.97 960.09 853.96 960.09 853.96"/><polygon class="cls-13" points="960.09 853.97 960.09 869.43 941.88 879 941.91 878.84 941.98 878.85 960.09 853.97"/><polygon class="cls-5" points="960.09 853.96 960.09 853.97 960.08 853.96 960.09 853.96"/><polygon class="cls-13" points="960.08 853.96 960.09 853.97 941.98 878.85 941.91 878.84 945.36 858.74 945.39 858.72 960.08 853.96"/><polygon class="cls-12" points="960.07 853.95 960.08 853.96 945.39 858.72 945.36 858.74 930.69 844.43 960.07 853.95"/><polygon class="cls-12" points="960.07 853.95 930.69 844.43 930.64 844.39 950.97 841.43 950.97 841.44 960.07 853.95"/><polygon class="cls-12" points="1084.36 844.39 1084.31 844.44 1084.3 844.43 1054.93 853.95 1064.03 841.44 1064.03 841.43 1084.36 844.39"/><polygon class="cls-12" points="1084.31 844.44 1069.63 858.74 1069.61 858.72 1054.92 853.96 1054.93 853.95 1084.3 844.43 1084.31 844.44"/><polygon class="cls-12" points="1073.08 878.84 1073.11 879 1054.91 869.43 1054.91 853.97 1073.01 878.85 1073.08 878.84"/><polygon class="cls-12" points="1069.63 858.74 1073.08 878.84 1073.01 878.85 1054.91 853.97 1054.92 853.96 1069.61 858.72 1069.63 858.74"/><polygon class="cls-13" points="1064.03 841.43 1064.03 841.44 1054.93 853.95 1054.92 853.96 1054.91 853.96 1054.91 823.35 1055.05 823.28 1064.01 841.43 1064.03 841.43"/><polygon class="cls-13" points="1054.91 823 1055.05 823.28 1054.91 823.35 1054.91 853.96 1054.91 853.96 1054.9 853.95 1045.8 841.44 1045.8 841.43 1045.81 841.43 1054.91 823"/><polygon class="cls-5" points="1054.92 853.96 1054.91 853.97 1054.91 853.96 1054.92 853.96"/><polygon class="cls-13" points="1054.91 853.97 1054.91 869.43 1036.71 879 1036.74 878.84 1036.81 878.85 1054.91 853.97"/><polygon class="cls-5" points="1054.91 853.96 1054.91 853.97 1054.91 853.96 1054.91 853.96"/><polygon class="cls-13" points="1054.91 853.96 1054.91 853.97 1036.81 878.85 1036.74 878.84 1040.19 858.74 1040.22 858.72 1054.91 853.96"/><polygon class="cls-13" points="1054.9 853.95 1054.91 853.96 1040.22 858.72 1040.19 858.74 1025.52 844.43 1054.9 853.95"/><polygon class="cls-13" points="1054.9 853.95 1025.52 844.43 1025.47 844.39 1045.8 841.43 1045.8 841.44 1054.9 853.95"/></g></g></g></svg>